<svg version="1.1" id="Layer_1" xmlns="http://www.w3.org/2000/svg" xmlns:xlink="http://www.w3.org/1999/xlink" x="0px" y="0px"
	 width="100%" viewBox="0 0 610 307" enable-background="new 0 0 610 307" xml:space="preserve">
<path fill="#000000" opacity="1.000000" stroke="none" 
	d="
M467.000000,308.000000 
	C312.833344,308.000000 159.166656,307.984070 5.500067,308.093933 
	C1.750630,308.096619 0.900711,307.249695 0.905206,303.499878 
	C1.024479,204.000031 1.022611,104.499969 0.904441,5.000113 
	C0.900375,1.576012 1.576444,0.903758 5.000050,0.905561 
	C205.666672,1.011265 406.333344,1.011265 606.999939,0.905561 
	C610.423584,0.903758 611.099548,1.576013 611.095520,5.000113 
	C610.977417,104.666634 610.977417,204.333359 611.095520,303.999878 
	C611.099548,307.424011 610.425232,308.108551 606.999695,308.097839 
	C560.500122,307.952271 514.000000,308.000000 467.000000,308.000000 
z"/>
<path fill="#FE5DA0" opacity="1.000000" stroke="none" 
	d="
M203.604462,108.257866 
	C205.499985,108.104630 206.996048,107.981079 208.489136,108.009995 
	C213.207504,108.101357 216.901855,106.349213 219.630844,102.028519 
	C220.327957,102.053596 220.655899,102.285858 221.127197,102.806274 
	C221.743088,103.452507 222.266235,103.585388 223.186615,103.542709 
	C223.762146,103.528969 223.998322,103.524910 224.599518,103.519165 
	C226.777893,103.618126 228.573853,103.267326 230.365280,103.234741 
	C233.160217,103.183891 235.698578,103.835876 235.618301,107.807968 
	C235.279694,108.570015 235.014633,108.952263 234.690002,109.293900 
	C234.474564,109.520607 234.285126,109.769073 234.106476,110.024841 
	C234.240341,109.866104 234.365479,109.700294 234.730560,109.286224 
	C237.362640,98.481415 248.298004,96.556351 260.277557,102.521538 
	C260.169556,101.056503 259.033203,101.186150 258.264282,100.974831 
	C253.159683,99.572044 249.449127,96.542480 247.430771,91.614792 
	C246.715027,89.867310 245.893890,88.323723 243.697235,87.449783 
	C243.229263,87.070435 243.059158,86.896835 242.708191,86.406693 
	C242.485428,85.851944 242.443527,85.613739 242.465515,85.020386 
	C242.943100,83.763489 243.807114,83.293953 244.737259,82.403778 
	C246.841568,81.778511 248.668320,82.933563 249.637405,79.311813 
	C251.051651,74.026466 256.168976,71.708076 261.634186,71.000923 
	C262.522919,70.885933 263.702332,71.356323 263.958130,69.507317 
	C263.622345,68.612801 263.690063,68.169937 264.507599,67.647766 
	C267.930725,67.919998 270.141693,69.541222 271.713196,72.586891 
	C271.830658,73.468758 271.724487,73.949615 271.257202,74.683060 
	C268.915039,77.283829 266.450256,76.060524 264.033813,75.703148 
	C258.865570,74.938820 254.517670,77.813255 253.035400,82.881699 
	C251.800293,87.105049 253.857101,91.877411 257.745453,93.853638 
	C258.681274,94.329254 259.583160,94.522415 260.362061,94.008606 
	C260.686005,93.528633 260.797363,93.124329 260.554016,92.902359 
	C255.361511,88.165863 255.828415,85.689651 262.377289,83.325943 
	C262.690460,83.212891 262.994720,83.063118 263.326569,83.027184 
	C267.943756,82.527222 270.847687,80.396484 270.928070,75.072189 
	C271.603973,74.556335 272.061493,74.492760 272.832581,74.818405 
	C274.210785,76.981102 275.302216,78.921257 276.710022,81.013123 
	C277.942688,81.617912 279.210052,81.491982 279.719116,83.134048 
	C279.110809,90.436234 276.791992,96.452904 268.865875,101.013969 
	C276.278534,100.743874 276.798340,104.680588 277.429993,109.386864 
	C278.656219,118.522903 277.933075,127.646790 278.232910,136.768356 
	C278.298126,138.753220 278.041901,140.767303 278.928955,142.984161 
	C280.603241,145.344894 283.783356,144.820068 285.043823,147.495895 
	C276.002655,148.321991 276.002625,148.321991 276.002808,157.583969 
	C276.002869,159.416824 276.042786,161.250763 275.993408,163.082291 
	C275.922760,165.703735 275.788116,168.226562 279.644806,168.069000 
	C281.199524,168.005493 282.045349,169.152069 281.945679,170.712173 
	C281.825439,172.594330 280.270752,171.955582 279.272736,171.970535 
	C274.608307,172.040527 269.935455,172.154495 265.279449,171.944946 
	C262.604279,171.824554 261.865967,172.719711 261.940430,175.323456 
	C262.116516,181.483521 262.047424,187.652557 261.975403,193.816772 
	C261.946869,196.261063 262.263428,198.145630 265.371857,198.035080 
	C266.909058,197.980408 267.915161,198.847534 267.936035,200.449677 
	C267.965698,202.722824 266.147247,201.941849 265.030579,201.961655 
	C260.366577,202.044479 255.696030,202.114914 251.036560,201.947739 
	C248.617020,201.860931 247.759613,202.677200 247.964752,205.063248 
	C248.135391,207.048035 248.003708,209.059219 247.998108,211.058685 
	C247.986206,215.304764 246.732895,220.371872 255.389069,218.859467 
	C254.888351,219.385788 254.387634,219.912125 253.886932,220.438446 
	C242.457550,220.438446 231.028183,220.438446 219.636993,220.438446 
	C219.624634,220.533539 219.637787,219.971313 219.707123,219.964294 
	C225.473297,219.380875 225.103226,215.304535 225.049759,211.091827 
	C224.910233,200.096451 224.931854,189.097412 225.043854,178.101410 
	C225.077515,174.795151 224.840332,173.284302 220.676147,174.495331 
	C216.497345,175.710587 211.923767,175.601486 207.514343,175.965683 
	C206.491638,176.050156 205.043503,176.433334 204.998077,174.506287 
	C204.964035,173.061417 205.038986,172.153442 206.967331,171.879669 
	C209.840256,171.471817 210.025940,169.788742 208.196762,167.669144 
	C207.352966,166.691391 206.779449,165.483154 205.955795,164.484680 
	C204.296219,162.472916 203.760483,158.670074 199.476257,161.067444 
	C194.799652,163.684372 192.839890,166.836090 194.026184,170.907806 
	C194.744217,173.372314 196.690918,172.947174 198.473511,173.016083 
	C199.786942,173.066833 200.860458,173.711121 200.842926,175.019531 
	C200.825592,176.312805 199.747803,177.012558 198.438690,176.972107 
	C194.639755,176.854782 191.045959,178.518417 187.172592,178.058334 
	C183.916962,177.671631 183.916153,179.717453 185.328354,181.673996 
	C193.518066,193.020584 201.768158,204.324905 210.136154,215.540283 
	C211.544128,217.427322 213.075790,219.574860 216.146408,219.860382 
	C203.895630,223.053192 191.521957,223.428711 179.292572,225.177933 
	C179.230301,224.317581 179.125931,223.733154 179.195267,223.711761 
	C185.444534,221.783585 183.722656,218.947159 180.712952,215.033478 
	C176.078430,209.006851 172.073059,202.496429 167.822952,196.223984 
	C161.128220,201.475372 165.899612,208.013489 165.470627,213.905701 
	C165.414398,214.678070 165.904495,215.474365 165.975784,216.274353 
	C166.609299,223.383484 166.598267,223.384460 172.907471,225.053604 
	C161.586197,227.329239 150.136551,228.572327 138.569626,229.126572 
	C138.519638,227.570679 139.287643,227.210159 140.399231,226.991531 
	C143.138382,226.452805 144.100952,225.705887 143.338043,222.101273 
	C141.819870,214.928146 141.735825,207.455536 140.991058,200.113571 
	C140.189087,192.207809 139.308929,184.309967 138.332825,175.194016 
	C134.680939,180.855682 132.181305,185.846085 127.054039,188.546021 
	C125.431061,189.400635 125.988335,191.209351 126.017273,192.638321 
	C126.238472,203.561890 122.114380,212.268311 113.043938,218.541794 
	C112.260300,219.083786 111.274551,219.944427 111.167809,220.759842 
	C110.081345,229.059021 104.402863,234.491043 98.273949,238.640732 
	C91.485474,243.236938 83.725014,246.620132 74.942818,246.061935 
	C72.128868,245.883057 69.335365,245.449020 66.938507,244.279816 
	C63.878654,242.787216 62.132248,243.119873 60.907959,246.314804 
	C60.628136,247.045029 59.761196,247.529892 59.364109,248.239441 
	C58.188503,250.340057 57.650242,253.717224 55.053707,253.702225 
	C52.152454,253.685471 51.558281,250.153412 50.480007,247.888641 
	C46.183010,238.863327 42.068459,229.751144 37.683430,220.230545 
	C40.439373,219.847397 41.193661,221.849197 42.366905,222.919403 
	C50.226147,230.088242 57.871014,237.475128 67.764488,241.990982 
	C78.468765,246.876862 91.975685,240.861038 93.511253,232.217773 
	C94.181152,228.447159 93.798363,226.756653 89.803024,227.010239 
	C85.969528,227.253555 82.269272,226.541183 78.893173,224.895187 
	C76.663788,223.808289 75.854378,224.164078 74.843056,226.346680 
	C73.762054,228.679657 72.228333,230.872726 70.562592,232.849030 
	C67.852699,236.064148 65.720718,235.585022 64.008194,231.786148 
	C60.611717,224.251770 57.130981,216.755341 53.675838,209.247467 
	C52.836517,207.423676 51.841656,206.383575 49.460621,205.840744 
	C37.234440,203.053421 28.048685,196.523682 24.915916,183.597473 
	C22.462875,173.475906 23.611834,164.018799 31.290113,156.346359 
	C34.041660,153.596924 35.890503,150.679977 37.042473,146.980072 
	C38.950275,140.852554 41.997715,135.364807 47.667347,131.752121 
	C49.451172,130.615463 50.207184,128.952057 50.037529,126.681854 
	C49.241146,116.025108 53.566479,107.728470 62.031521,101.441566 
	C62.969566,100.744888 63.037815,99.789062 63.091000,98.399200 
	C63.732952,97.720711 64.230019,97.933472 64.767845,98.173897 
	C65.373085,98.444466 65.779716,98.540565 65.134743,98.373001 
	C65.126099,98.370758 65.184723,98.109535 65.333389,97.685471 
	C69.827591,92.681465 75.631157,91.307442 82.018784,90.528137 
	C83.676552,90.630608 84.241699,91.925850 85.664291,92.248383 
	C89.359253,92.119164 92.670395,91.559113 96.044662,92.864807 
	C99.168533,94.073593 100.292664,90.463295 102.751801,89.675171 
	C104.931198,92.429054 102.604073,93.852501 101.425003,95.635483 
	C106.677628,98.167564 111.129723,101.571281 116.499397,105.053680 
	C114.385841,100.053963 111.675224,96.333961 109.578323,92.291565 
	C108.078827,89.400810 105.604927,90.742218 103.163025,90.324890 
	C102.284653,86.191475 105.363647,84.998955 108.093063,84.142319 
	C110.759155,83.305573 111.015556,86.245033 111.939362,87.790169 
	C115.680107,94.046867 119.458069,100.292458 122.865143,106.731133 
	C123.971642,108.822189 125.626945,109.535378 127.418839,109.916161 
	C134.194366,111.355988 140.279526,113.948746 145.060989,119.158043 
	C146.786926,121.038399 148.516983,119.109863 149.717804,118.506653 
	C153.208817,116.752968 154.638321,115.850311 155.207779,121.309616 
	C156.785400,136.433640 158.769318,151.514053 160.067871,166.678192 
	C160.899963,176.395065 162.361053,186.058090 163.692184,196.994110 
	C168.734818,190.741440 173.234543,185.161957 178.480362,178.657349 
	C173.716461,180.269226 169.868103,180.013519 166.034470,179.984619 
	C165.269348,179.978851 164.265793,180.191437 164.101837,179.018997 
	C163.991928,178.233170 163.819656,177.303558 164.955933,177.035782 
	C173.345322,175.058670 168.587097,168.678131 168.551392,164.553741 
	C168.485413,156.930145 166.933594,149.319168 165.996811,141.703415 
	C164.620636,130.515610 163.911026,119.259674 162.146057,108.103867 
	C160.995682,100.832603 160.598312,93.435158 160.037140,86.080994 
	C159.793793,82.891701 160.210999,79.524300 155.353928,79.962074 
	C154.224670,80.063866 153.308228,79.241989 153.173508,78.320274 
	C152.931305,76.663322 154.395157,76.254288 155.643188,75.762703 
	C161.344971,73.516853 167.024384,71.213669 172.741547,69.008110 
	C173.422363,68.745468 173.932526,68.584435 173.923248,67.410675 
	C174.015594,66.797676 174.150574,66.567406 174.599548,66.093002 
	C181.733566,63.217140 184.181992,64.290131 185.395905,71.371353 
	C187.216949,81.994331 187.935394,92.770973 189.179733,103.475670 
	C190.519592,115.002159 191.449265,126.576134 193.079315,138.552139 
	C195.530411,136.071320 197.372879,133.669281 199.123596,131.167770 
	C200.655518,128.978882 201.175140,126.576691 200.588516,124.060593 
	C199.595825,119.802689 199.761246,115.487045 199.731689,110.795761 
	C200.514023,108.978088 201.800690,108.572853 203.604462,108.257866 
z"/>
<path fill="#FE5DA0" opacity="1.000000" stroke="none" 
	d="
M559.785034,135.760986 
	C566.055542,137.166260 573.583557,147.208450 574.043518,154.052032 
	C574.709656,163.962814 572.416687,172.302536 562.760925,177.047302 
	C560.559875,178.128860 560.949890,179.998917 561.024231,181.744141 
	C561.446472,191.646561 556.700684,198.229492 547.804321,201.880829 
	C545.972839,202.632523 546.507568,202.903275 546.651184,204.449448 
	C547.209839,210.466843 547.722839,216.526352 544.952026,222.353851 
	C542.447754,227.620819 535.374939,228.896896 533.657776,233.031921 
	C531.724060,237.688293 531.131287,243.207733 527.330017,246.804398 
	C520.426331,253.336517 507.622437,255.215988 498.055298,248.868118 
	C494.214813,246.319946 490.886963,245.995544 486.857758,247.550339 
	C483.517700,248.839203 481.880859,247.615143 481.971619,243.902573 
	C482.097778,238.743088 482.032990,233.577911 481.982666,228.415817 
	C481.968750,226.985245 482.176544,225.532990 483.633911,225.203674 
	C485.605164,224.758270 484.780579,226.749847 485.220245,227.608139 
	C488.415283,233.845474 491.399353,240.164719 496.591644,245.157486 
	C500.423065,248.841690 504.998901,249.763443 509.806061,248.881592 
	C515.892944,247.764999 517.421021,240.911469 513.153687,235.914352 
	C509.361206,231.473267 504.911621,227.025299 497.851624,228.944916 
	C496.667542,229.266876 494.873199,229.338638 494.837189,227.428482 
	C494.732086,221.861511 489.561218,219.717178 487.072357,215.760437 
	C480.676056,205.591644 483.478516,191.851685 493.838898,185.699692 
	C495.420044,184.760803 496.060791,183.814774 496.060944,181.905762 
	C496.061554,173.617645 499.843048,167.628250 507.470520,164.202560 
	C509.487122,163.296860 510.810242,163.025436 510.301392,159.597931 
	C509.305695,152.891602 509.091919,145.815033 513.960938,139.875427 
	C515.449768,138.059174 516.863403,136.166595 519.083862,135.478470 
	C522.552856,134.403351 523.510803,132.135483 523.091125,128.444244 
	C524.675720,127.486343 525.436646,129.077530 527.008423,129.392181 
	C535.987854,129.720047 544.548279,130.294525 551.850830,135.815170 
	C553.114746,136.770691 554.389343,135.944916 556.019043,135.582123 
	C557.415894,135.502686 558.435120,135.485992 559.785034,135.760986 
z"/>
<path fill="#FE5D9F" opacity="1.000000" stroke="none" 
	d="
M370.223999,118.765854 
	C368.465820,118.981613 367.105499,118.593857 366.950623,121.045639 
	C366.433075,129.239899 365.721863,137.423279 364.986542,145.601974 
	C364.399841,152.127701 363.614441,158.635635 363.032562,165.161728 
	C362.824982,167.490005 362.625244,169.936218 366.198486,170.133408 
	C367.351624,170.197037 368.132904,171.405838 367.958923,172.765152 
	C367.723999,174.600601 366.229462,173.817993 365.222595,173.994232 
	C361.380096,174.666763 357.737366,172.942200 353.948578,173.026718 
	C352.763947,173.053131 351.187927,172.442657 350.991699,174.620178 
	C350.373901,181.477493 349.620026,188.322723 349.024353,195.181778 
	C348.821045,197.522842 348.645691,199.947403 352.208679,200.142181 
	C353.354004,200.204788 354.141449,201.422989 353.948700,202.785080 
	C353.690491,204.609909 352.199524,203.814392 351.194214,203.987061 
	C347.022522,204.703583 343.066864,202.815109 338.918060,202.947632 
	C336.941315,203.010757 335.766998,203.266830 335.963715,205.652618 
	C336.207916,208.614334 334.902283,211.397339 334.864807,214.425293 
	C334.816406,218.339050 335.315033,221.236099 340.066223,222.138809 
	C328.493103,222.699265 317.308319,221.192871 306.046967,219.820999 
	C306.357605,217.186401 308.082672,218.138290 309.170288,218.037460 
	C310.968994,217.870682 311.827087,217.069366 312.008789,215.264648 
	C312.631989,209.076187 313.467316,202.906464 313.972015,196.709244 
	C315.063110,183.310852 316.553406,169.950272 317.771667,156.572083 
	C318.560638,147.908447 319.855011,139.256485 319.973633,130.530716 
	C320.000824,128.529510 320.468445,126.666679 320.844360,124.736122 
	C321.264160,122.580269 322.111389,119.359810 317.720428,119.964897 
	C316.895294,120.078606 315.849182,119.840057 316.157501,118.716743 
	C316.414673,117.779800 317.216492,117.033218 318.384216,117.029716 
	C322.181396,117.018326 325.750122,115.666733 329.435852,115.152603 
	C331.758667,114.828575 332.097565,113.979202 332.030975,112.049248 
	C331.946289,109.594643 331.991882,107.193031 332.856506,104.748444 
	C333.474731,103.000595 333.605225,100.628693 330.266266,100.917427 
	C328.992462,101.027573 328.212494,100.030777 328.034515,98.706680 
	C327.772430,96.757149 329.587799,96.709511 330.584381,96.274704 
	C332.513977,95.432808 334.855682,95.420456 336.805115,95.306030 
	C342.448608,94.974785 345.403870,93.339211 345.694763,87.035400 
	C345.903442,82.513733 345.274078,77.826424 346.924835,73.343391 
	C347.659912,71.347115 346.090393,70.921364 344.341370,70.942802 
	C343.029785,70.958878 342.265259,70.095673 342.034210,68.784737 
	C341.688721,66.824402 343.533051,66.556999 344.488373,66.319664 
	C346.840729,65.735252 349.312622,65.443123 351.704987,65.156059 
	C354.374237,64.835777 353.974731,63.383186 354.100830,61.360016 
	C354.678314,60.619740 355.218536,60.406414 356.235535,60.360252 
	C359.452118,61.701546 362.221039,60.783047 364.977936,60.329914 
	C371.826263,59.204277 374.377625,61.188988 374.142487,68.178215 
	C373.813507,77.959114 372.356903,87.660759 371.634949,97.415054 
	C371.160034,103.831139 369.628174,110.194725 370.569214,117.122498 
	C370.591766,117.841370 370.540009,118.128860 370.223999,118.765854 
z"/>
<path fill="#FE5D9F" opacity="1.000000" stroke="none" 
	d="
M448.339661,159.553375 
	C444.767426,165.688187 445.799347,172.444016 444.056427,178.626266 
	C443.352325,181.123581 445.825409,181.251907 447.296448,182.060104 
	C448.364471,182.646896 449.189117,183.467178 448.950623,184.834778 
	C448.637268,186.632034 447.138672,186.021576 446.167389,185.953415 
	C443.239319,185.747910 440.044861,185.959595 437.476135,184.826019 
	C433.864838,183.232346 433.587982,185.756088 433.237488,187.645859 
	C431.991974,194.361115 431.122711,201.145218 429.969421,207.878998 
	C429.570343,210.209167 430.807343,211.282791 432.594055,211.893402 
	C434.248108,212.458694 435.395447,213.347351 434.837128,215.088440 
	C434.281158,216.822205 432.492493,216.062561 431.388733,215.923096 
	C428.017731,215.497086 424.691528,214.722488 421.343018,214.110214 
	C419.303040,213.737183 417.687592,213.855835 417.975952,216.687454 
	C418.261993,219.496429 417.498444,222.424454 416.717255,224.870743 
	C415.176636,229.695343 415.708740,232.628983 421.390900,233.709518 
	C417.678131,235.615189 389.503418,231.361649 386.577850,227.973648 
	C393.584106,229.328491 393.474274,225.326447 394.217743,220.430542 
	C397.198669,200.801117 400.337402,181.196671 403.067993,161.526428 
	C404.362823,152.199036 406.101990,142.930542 407.789948,133.662689 
	C408.159027,131.636230 407.739563,130.896744 405.689148,130.973770 
	C404.580658,131.015396 403.268158,131.358719 402.436096,129.444016 
	C406.258514,126.960411 410.904877,128.103226 415.046509,127.161880 
	C417.290283,126.651901 418.317444,126.278160 418.013306,123.929955 
	C417.710938,121.595673 419.423920,119.578964 419.044983,117.161308 
	C418.686523,114.874092 421.022034,111.380043 416.041290,111.409500 
	C415.478851,111.412827 414.908142,110.020966 414.341248,109.276093 
	C415.002075,108.815895 415.625397,108.285774 416.330139,107.907288 
	C419.773529,106.058075 423.689514,107.183662 427.365417,106.205719 
	C429.841919,105.546875 430.820831,104.413414 430.913879,102.445374 
	C431.123627,98.010918 432.139526,93.743820 432.921295,89.412148 
	C433.688965,85.158859 434.327179,80.633781 427.125488,80.037857 
	C432.556061,75.714577 438.169189,77.450363 443.459686,75.976692 
	C444.318481,75.581940 444.761108,75.216667 445.575684,74.628036 
	C449.057220,72.345055 452.660461,72.582184 456.091339,72.576584 
	C459.676727,72.570747 461.621643,75.334419 461.358002,79.530998 
	C460.868073,87.329254 459.234467,94.976929 458.090698,102.687088 
	C455.461578,120.410179 452.526428,138.087326 450.033234,155.831482 
	C449.939941,156.495346 449.769653,157.130402 449.292175,158.127747 
	C448.989136,158.783234 448.830994,159.027405 448.339661,159.553375 
z"/>
<path fill="#FF58A7" opacity="1.000000" stroke="none" 
	d="
M370.189484,119.472244 
	C369.959747,119.115356 369.983643,118.641411 369.992798,118.404312 
	C371.204102,99.451851 373.406189,80.824379 374.950195,62.137230 
	C376.165619,47.426811 377.918457,32.758255 379.056061,18.035048 
	C379.378082,13.867673 378.503723,12.870636 374.434662,13.452241 
	C370.335571,14.038143 366.339539,15.311242 362.142334,15.220366 
	C362.598969,29.431984 359.871124,43.312653 358.998627,57.332245 
	C358.899445,58.926090 358.099182,60.158619 356.230286,60.941647 
	C355.467407,60.985611 355.099701,60.976444 354.456421,60.954300 
	C355.944336,56.579445 355.383820,51.829189 355.725769,47.368538 
	C356.442169,38.023430 358.189270,28.760111 358.184479,19.333326 
	C358.183472,17.345987 358.231232,16.824415 356.314392,16.991058 
	C354.645874,17.136106 353.327850,16.643476 353.045563,14.755281 
	C352.663666,12.200562 355.171509,12.737295 356.108215,12.537463 
	C364.046448,10.843996 372.043091,9.413230 380.044830,8.035094 
	C382.639832,7.588158 384.262329,8.663250 384.001587,11.611651 
	C383.235443,20.274500 382.907837,29.007044 381.537903,37.573059 
	C380.809937,42.124794 380.858398,46.699062 380.237732,51.246189 
	C378.551910,63.595879 378.117462,76.111351 376.958984,88.539864 
	C376.202515,96.655807 375.051727,104.735107 374.070312,112.829941 
	C373.743591,115.524872 375.957214,115.525681 377.554810,115.955566 
	C379.032898,116.353287 380.030365,116.997322 379.950165,118.587593 
	C379.835754,120.856003 378.003967,119.892326 376.904999,119.947472 
	C374.750488,120.055580 372.581940,119.884613 370.189484,119.472244 
z"/>
<path fill="#FF59A5" opacity="1.000000" stroke="none" 
	d="
M85.650230,91.962120 
	C85.217827,94.350380 84.261398,93.059837 83.109818,92.129822 
	C78.833878,87.328056 79.275108,81.670944 83.782005,75.981339 
	C80.228058,79.604767 74.722504,81.865952 71.468025,86.933105 
	C69.116074,90.595039 68.035713,94.843544 65.262558,98.613228 
	C64.274132,99.435440 63.917805,98.754898 63.318695,98.171211 
	C63.764339,87.679749 69.565697,80.346657 77.785721,75.172874 
	C87.002045,69.372017 97.042854,65.868294 108.308640,68.936356 
	C112.118637,69.973946 114.022995,66.806206 115.835869,64.393463 
	C120.028877,58.812973 122.102913,58.858028 125.421631,64.863579 
	C130.038635,73.218521 134.718491,81.539345 139.456940,89.825890 
	C140.163940,91.062279 142.022064,92.292168 140.541824,93.549988 
	C138.985687,94.872307 137.341324,93.699883 135.809540,92.393204 
	C129.862274,87.319962 124.209129,81.819344 117.362671,77.929848 
	C109.519958,73.474358 101.528137,69.461349 92.190651,73.941231 
	C85.044052,77.369980 82.871567,82.855614 85.650230,91.962120 
z"/>
<path fill="#FF58A5" opacity="1.000000" stroke="none" 
	d="
M525.346619,132.685440 
	C523.690613,131.836517 524.263245,129.980835 523.345764,128.317566 
	C522.718140,116.144897 531.549622,109.073799 542.686890,108.090408 
	C550.091431,107.436600 557.355957,108.711014 563.637024,113.146248 
	C566.822327,115.395485 569.781860,113.132195 572.498108,112.518867 
	C576.203247,111.682228 577.012573,112.683868 577.004456,115.890015 
	C576.986694,122.879471 577.042603,129.869568 576.953064,136.857925 
	C576.939148,137.944763 577.858032,139.760773 575.631287,139.935410 
	C574.047607,140.059616 573.440308,139.001205 572.886658,137.635635 
	C570.694275,132.228226 568.449158,126.818871 564.998291,122.059792 
	C561.228088,116.860283 556.677917,112.845284 549.699890,113.003090 
	C546.225586,113.081665 543.894043,114.802818 542.522095,117.951302 
	C541.236023,120.902534 542.279114,123.329750 544.127808,125.623024 
	C548.214478,130.692322 554.344360,132.444565 559.952576,135.633759 
	C559.249451,136.209015 558.382446,136.461563 557.198120,136.836075 
	C550.490295,135.922928 544.956177,133.065857 540.830811,128.162552 
	C535.539734,121.873703 537.816956,113.368301 545.088379,110.945084 
	C532.695435,114.438400 528.295654,118.319344 527.275635,126.833344 
	C527.037109,128.824203 526.956238,130.801300 525.346619,132.685440 
z"/>
<path fill="#FF57A6" opacity="1.000000" stroke="none" 
	d="
M448.373657,160.017792 
	C448.006500,159.835175 448.021881,159.349075 448.028931,159.106003 
	C453.112640,157.739517 453.084290,153.538635 453.647980,149.643723 
	C457.952148,119.900993 462.905029,90.256538 467.165894,60.507153 
	C467.829437,55.874451 466.817871,54.795464 462.123932,55.475357 
	C457.706146,56.115250 453.314545,56.919670 448.892944,56.444576 
	C451.530060,59.745090 450.190399,70.559761 446.298462,75.617050 
	C445.622528,75.955093 445.126709,75.961205 444.259033,75.964081 
	C444.591492,71.801468 445.445953,67.659966 445.944122,63.476040 
	C446.244232,60.955242 448.123657,57.550510 442.928741,57.188618 
	C441.427521,57.084042 440.514984,55.332191 443.010376,53.894981 
	C446.234955,52.037807 449.731232,53.203342 453.101288,52.273483 
	C458.221710,50.860672 463.752777,50.713509 469.125061,50.553776 
	C471.069519,50.495960 473.013702,50.941002 472.331268,54.772007 
	C469.761749,69.196655 468.190369,83.795425 465.955414,98.284286 
	C463.131073,116.593987 459.992035,134.854996 457.077698,153.151184 
	C456.708984,155.465897 456.588684,157.927750 460.188049,158.115082 
	C461.355347,158.175858 462.117310,159.375412 461.951935,160.731308 
	C461.729218,162.557571 460.240967,161.934723 459.230499,161.969727 
	C455.624329,162.094681 452.197845,161.032104 448.373657,160.017792 
z"/>
<path fill="#FF58A6" opacity="1.000000" stroke="none" 
	d="
M203.648087,107.948502 
	C203.250031,108.732567 202.494781,109.306725 201.452362,109.936859 
	C197.952087,108.428902 198.413330,105.071434 198.143784,102.541954 
	C196.402847,86.204033 194.362106,69.897598 192.821686,53.538803 
	C192.294174,47.936764 191.531906,47.371674 186.382706,49.400730 
	C185.298676,49.827896 184.193115,50.189999 183.112091,50.622330 
	C176.365204,53.320625 176.405716,53.313725 177.006027,60.321129 
	C177.188293,62.448814 177.466354,64.694328 175.366547,66.679710 
	C174.908096,66.968918 174.702713,66.981445 174.188965,67.010956 
	C172.117905,65.586723 173.134796,63.631058 173.053223,61.937489 
	C172.895538,58.664623 173.029312,55.446457 168.231445,55.934975 
	C167.150085,56.045074 166.324890,55.201576 166.145386,54.201694 
	C165.938553,53.049587 166.911255,52.416615 167.834381,52.044849 
	C176.071259,48.727612 184.301575,45.391506 192.588470,42.202965 
	C194.492462,41.470360 195.737808,42.487171 195.995529,44.573929 
	C196.654144,49.907085 197.523972,55.221859 197.968475,60.572304 
	C199.279175,76.348907 200.934738,92.082077 203.648087,107.948502 
z"/>
<path fill="#FF56A8" opacity="1.000000" stroke="none" 
	d="
M285.439453,147.899368 
	C282.419525,146.127396 279.260529,147.808685 276.344391,146.129715 
	C278.844788,142.732178 282.475372,144.072937 285.911072,144.055191 
	C284.494110,141.465546 284.767181,138.624954 284.756866,135.848434 
	C284.701416,120.898766 284.638641,105.947731 284.798279,90.999855 
	C284.841705,86.935349 283.713806,84.284378 279.269440,83.142479 
	C278.466034,82.399933 277.930511,81.964638 277.210693,81.347092 
	C280.466034,81.113022 283.869324,77.515541 286.784332,79.308304 
	C289.711060,81.108246 287.202148,85.398819 288.061615,88.418793 
	C289.966583,95.112137 288.787262,101.905472 288.941101,108.642204 
	C289.172333,118.768211 289.014252,128.903427 288.992340,139.034668 
	C288.986816,141.594070 288.678436,144.211639 292.569794,144.056976 
	C294.123047,143.995255 295.034821,145.062820 294.933899,146.626266 
	C294.789062,148.869507 292.963348,147.856232 291.865265,147.943695 
	C289.885376,148.101395 287.882965,147.976608 285.439453,147.899368 
z"/>
<path fill="#FF58A5" opacity="1.000000" stroke="none" 
	d="
M220.242432,104.377266 
	C220.020142,103.628044 220.001648,103.128944 219.969727,102.255531 
	C219.973038,101.533424 220.129272,101.267601 220.655609,101.020828 
	C221.401398,100.621460 221.753082,100.167519 221.889954,99.263611 
	C222.567459,98.057419 223.357147,97.209549 223.905304,96.226936 
	C226.244751,92.033310 224.989441,89.857590 220.007950,88.941139 
	C218.138977,88.597313 215.169968,88.782448 215.194138,86.259903 
	C215.224350,83.107552 218.270920,84.141090 220.237732,84.011185 
	C228.199493,83.485321 236.041977,81.527275 244.543106,82.097855 
	C244.931305,83.283844 244.787827,84.354332 243.207748,84.869019 
	C241.951996,84.146606 240.958267,84.662453 240.073425,84.962349 
	C234.051025,87.003563 227.931137,87.888062 221.588272,86.555267 
	C220.940964,86.740685 221.853622,87.382584 221.619568,86.758354 
	C221.547836,86.567032 221.690033,86.464882 222.029099,86.534637 
	C223.621674,86.862305 225.755417,86.350044 226.634964,87.917366 
	C228.816895,91.805534 230.608109,89.674164 232.594604,87.873398 
	C235.353134,85.372818 238.928268,85.200798 242.633331,84.726936 
	C242.954361,85.104965 242.972794,85.307877 243.018036,85.815231 
	C243.499329,87.447357 242.828278,88.546135 241.874191,89.113968 
	C235.117752,93.134972 230.337555,99.317589 224.426208,104.769806 
	C223.919235,104.967957 223.710587,104.981697 223.188980,105.016365 
	C221.993484,105.331062 221.195663,105.122643 220.242432,104.377266 
z"/>
<path fill="#FF58A5" opacity="1.000000" stroke="none" 
	d="
M273.347107,75.012558 
	C272.519501,75.186356 271.919708,75.331764 270.730469,75.453400 
	C270.352844,74.933937 270.564606,74.438248 270.887146,73.553345 
	C271.967804,70.829292 274.130524,71.087265 276.063477,70.815781 
	C282.494110,69.912605 286.311951,65.700363 285.573212,60.346958 
	C284.858215,55.165771 279.615723,50.971466 274.606628,51.572983 
	C268.714325,52.280560 265.079132,56.967804 265.710541,63.199471 
	C265.862823,64.702263 266.164581,66.152779 265.110840,67.780403 
	C264.592865,68.208466 264.379364,68.442497 264.073700,68.908524 
	C259.158325,62.906288 261.129852,56.578636 265.062866,51.450882 
	C267.646454,48.082439 274.911743,45.538601 281.252411,48.224583 
	C286.856018,50.598347 290.486206,56.328465 289.959961,62.219452 
	C289.407684,68.402100 285.880951,73.860603 278.350281,74.902176 
	C276.895233,74.267288 275.747772,74.561035 274.317871,74.690620 
	C274.009125,74.835213 273.574860,74.984169 273.347107,75.012558 
z"/>
<path fill="#FE5DA0" opacity="1.000000" stroke="none" 
	d="
M274.401367,74.908569 
	C275.087860,74.012627 276.234436,73.851936 277.715881,74.655899 
	C276.911072,74.880989 275.852325,74.931450 274.401367,74.908569 
z"/>
<path fill="#FE5DA0" opacity="1.000000" stroke="none" 
	d="
M221.602875,99.079552 
	C222.654572,99.832100 222.508057,100.465981 221.148102,100.908424 
	C221.029785,100.369209 221.173325,99.780525 221.602875,99.079552 
z"/>
<path fill="#000000" opacity="1.000000" stroke="none" 
	d="
M188.623199,154.691315 
	C189.931244,155.042480 190.983688,155.003662 190.985214,156.469849 
	C190.986755,157.938400 190.076981,157.958237 189.029282,158.004089 
	C184.765228,158.190659 180.635788,159.689880 175.910095,158.844879 
	C176.763947,161.729385 178.604950,161.782776 180.544373,162.037506 
	C186.446243,162.812729 187.498596,166.308533 184.437286,171.260330 
	C180.887573,177.002136 175.967361,178.382370 169.869797,177.907898 
	C173.102234,173.622574 170.866837,168.917480 170.640549,164.525085 
	C170.255157,157.045059 168.924469,149.614288 168.004547,142.161133 
	C166.643326,131.132584 165.466049,120.075401 164.270020,109.036110 
	C163.423904,101.226364 162.486313,93.385994 161.913986,85.525650 
	C161.690735,82.459351 162.600784,78.311890 156.905258,77.418541 
	C162.748795,75.125999 167.968521,73.078194 173.568115,71.070152 
	C177.941925,76.070976 176.630188,82.216064 177.368073,87.804123 
	C179.650284,105.087677 181.135651,122.470886 183.132034,139.794800 
	C183.611038,143.951477 184.353546,148.125580 183.418427,152.569870 
	C182.690109,156.031250 186.661545,153.616867 188.623199,154.691315 
z"/>
<path fill="#000000" opacity="1.000000" stroke="none" 
	d="
M107.853241,144.435425 
	C107.076408,146.162827 109.320114,146.525345 110.182892,147.532593 
	C110.919983,148.393143 112.517822,148.372086 113.420395,147.700027 
	C114.534668,146.870346 113.851273,145.766159 113.265060,144.676086 
	C111.599319,141.578644 109.309883,138.793594 108.404778,135.209930 
	C111.758080,135.815933 115.121849,136.195236 118.359184,137.052200 
	C127.654053,139.512619 134.213379,148.555084 131.984924,158.796310 
	C131.092819,162.896194 124.338135,168.145355 120.037674,168.448990 
	C117.658142,168.617004 117.433998,165.647964 115.025009,165.596436 
	C116.204781,169.218597 114.993057,169.844849 111.904198,167.994736 
	C107.268234,165.217957 101.316406,164.973389 97.076836,160.234879 
	C103.755013,159.224670 108.787682,162.476639 114.164131,164.750412 
	C111.383888,160.449631 106.545761,158.220566 102.355873,158.460358 
	C94.458542,158.912308 92.618591,153.583115 89.862778,148.522171 
	C88.000046,145.101318 85.826736,141.840958 84.105408,138.354248 
	C82.464561,135.030548 80.813530,133.848984 78.166580,137.329483 
	C78.066765,137.460739 77.898026,137.546844 77.820518,137.686752 
	C73.233658,145.964828 65.479774,142.790848 58.664894,142.970184 
	C56.489037,143.027451 56.939579,141.303497 57.034332,140.119522 
	C57.398514,135.568893 58.842167,131.311981 63.050053,129.090225 
	C67.367447,126.810654 71.625099,124.149559 77.029900,127.836952 
	C81.074966,130.596680 85.729553,132.509445 90.949966,133.255600 
	C95.237198,133.868393 98.602676,137.386520 101.841599,140.379608 
	C103.656265,142.056534 105.249321,143.986252 107.853241,144.435425 
z"/>
<path fill="#000000" opacity="1.000000" stroke="none" 
	d="
M175.516693,66.972504 
	C174.745697,63.714458 174.876862,60.472416 174.219727,57.188366 
	C173.716522,54.673733 173.047852,53.635937 170.568680,53.204048 
	C178.146942,50.151424 185.725204,47.098797 194.034363,43.751755 
	C196.387436,65.756554 198.705536,87.434387 201.094421,109.552521 
	C203.001450,114.911461 201.569687,120.204887 203.365631,125.338013 
	C204.683731,129.105408 201.317245,132.750671 198.681061,135.829819 
	C196.275864,138.639191 193.928864,141.498367 191.212036,144.747147 
	C190.115326,133.533142 189.155655,122.717308 187.977982,111.925255 
	C186.404099,97.502174 184.661972,83.097458 182.989883,68.685104 
	C182.717789,66.339622 181.413712,65.358803 179.265305,66.412460 
	C178.121872,66.973236 177.053543,66.924881 175.516693,66.972504 
z"/>
<path fill="#000000" opacity="1.000000" stroke="none" 
	d="
M109.522720,191.782776 
	C105.835266,193.533447 103.263611,192.895584 100.383804,190.310471 
	C98.073799,188.236847 94.773384,186.691437 91.696571,186.158707 
	C83.583801,184.754059 78.003769,179.867279 72.603477,174.248627 
	C70.477364,172.036560 68.257584,167.203369 65.010155,169.419128 
	C62.325329,171.251007 66.499214,174.868790 67.033768,177.861618 
	C67.254837,179.099365 68.048653,180.234833 68.594742,181.445084 
	C51.851906,184.241013 39.791080,166.863953 44.010380,155.138840 
	C45.642193,150.604141 49.183945,148.149994 53.307911,146.320114 
	C55.224514,145.469711 56.335777,146.296265 57.008785,148.260315 
	C60.661827,158.921051 69.224342,162.404678 79.406937,162.875214 
	C82.810020,163.032486 85.013939,163.286880 86.131248,167.078873 
	C87.265205,170.927399 89.845093,174.223465 91.147270,178.125076 
	C92.336494,181.688232 94.785538,181.847382 97.510803,178.984451 
	C97.625481,178.863983 97.806732,178.771194 97.856789,178.630005 
	C100.698746,170.613235 105.771950,170.074966 113.260925,172.689575 
	C116.870522,173.949799 118.505898,176.246170 119.589523,178.699600 
	C120.465889,180.683762 119.443245,183.740814 117.687233,185.819244 
	C115.544441,188.355499 112.912422,190.266220 109.522720,191.782776 
z"/>
<path fill="#000000" opacity="1.000000" stroke="none" 
	d="
M88.910439,118.637955 
	C85.626984,124.078873 80.781013,122.444458 76.236267,121.935410 
	C75.657303,121.870560 74.855232,121.465637 74.623924,120.990646 
	C72.373032,116.368538 69.963257,111.978554 71.787117,106.296379 
	C73.689507,100.369545 78.042519,98.088997 83.234306,96.268738 
	C85.206017,95.577446 84.987808,97.242592 85.475189,98.008034 
	C90.629929,106.103546 98.429886,109.002510 107.515137,108.933769 
	C112.557594,108.895615 116.565437,110.768295 120.471725,114.005280 
	C121.087288,114.395035 121.370949,114.800018 121.703590,115.159706 
	C123.261909,116.844742 125.037689,119.336830 127.385109,117.625626 
	C129.444138,116.124649 126.410233,114.259918 126.481071,111.970459 
	C133.320755,112.567413 138.694122,116.147072 144.172577,120.485352 
	C138.241318,123.055779 132.729340,125.444504 127.217354,127.833229 
	C133.744247,127.777985 134.343552,131.895905 133.922852,136.358185 
	C133.625015,139.517242 135.826447,142.332306 134.686310,145.822266 
	C128.203445,137.625595 119.359673,134.390930 109.573357,132.925522 
	C107.739746,132.650955 105.984184,131.965012 104.908478,129.899918 
	C102.892532,126.029778 100.336578,122.443481 98.265518,118.598907 
	C95.022423,112.578674 93.086212,112.465179 88.910439,118.637955 
z"/>
<path fill="#000000" opacity="1.000000" stroke="none" 
	d="
M278.596191,82.920639 
	C287.000549,80.308037 287.002075,80.308037 287.002014,88.437111 
	C287.001862,105.698807 287.040466,122.960701 286.956573,140.222000 
	C286.943542,142.905701 287.114655,145.142593 290.288544,145.984818 
	C285.847382,145.984818 281.406219,145.984818 276.504639,145.934845 
	C276.030365,138.926086 275.730499,131.952652 276.084991,125.012672 
	C276.423553,118.385178 274.766479,111.923798 275.032471,105.347427 
	C275.118469,103.221565 274.094360,102.689995 272.356445,103.026627 
	C270.326019,103.419907 268.333588,104.009392 266.320953,104.514679 
	C265.136871,101.055779 266.209778,98.994293 269.839783,97.512169 
	C274.633301,95.554977 276.261169,91.096397 277.023407,86.282738 
	C277.203979,85.142403 276.193939,83.515991 278.596191,82.920639 
z"/>
<path fill="#000000" opacity="1.000000" stroke="none" 
	d="
M205.212799,132.198029 
	C207.150864,127.083694 207.500916,127.033180 210.555115,131.043701 
	C213.809662,135.317322 217.157593,139.523560 220.282455,143.889694 
	C221.119522,145.059280 223.156281,147.156189 219.934219,147.856277 
	C218.052231,148.265213 217.901978,149.086273 218.021027,150.514465 
	C218.203842,152.707703 220.000381,152.130341 221.048264,151.929184 
	C224.857040,151.198074 227.419754,152.572479 228.994064,156.004715 
	C229.632660,157.396927 231.062271,158.746277 227.800552,159.136108 
	C224.894333,159.483459 221.908340,160.431610 218.664795,162.610474 
	C221.660889,163.341812 224.895279,162.138351 225.152496,166.540268 
	C225.433243,171.344727 223.520996,173.358383 219.186432,172.900391 
	C215.569809,172.518250 212.248169,174.583710 207.495438,173.561539 
	C213.335678,172.621292 212.315720,169.908051 210.564407,167.075287 
	C209.289688,165.013412 207.894089,163.025452 206.524414,161.023651 
	C206.152435,160.480011 205.231918,159.658035 205.316345,159.549423 
	C209.780960,153.807388 203.081284,157.063614 202.023468,155.330490 
	C202.134735,150.910629 206.551437,153.515518 207.706909,150.750153 
	C204.892303,145.284180 203.460754,139.124786 205.212799,132.198029 
z"/>
<path fill="#000000" opacity="1.000000" stroke="none" 
	d="
M264.914764,68.359711 
	C261.450348,58.245106 264.109222,52.148525 273.006317,49.491016 
	C277.558167,48.131409 281.425110,49.916985 284.443970,53.042984 
	C287.628265,56.340298 289.049438,60.391705 287.421753,65.121765 
	C285.821503,69.772232 282.504395,72.233864 277.838409,72.943161 
	C275.894135,73.238724 273.870483,73.012375 271.440430,73.093735 
	C269.373138,71.172600 266.366089,71.047745 264.914764,68.359711 
z"/>
<path fill="#000000" opacity="1.000000" stroke="none" 
	d="
M175.820831,70.385422 
	C177.397614,69.362747 178.683395,68.680351 180.284576,67.830574 
	C182.761230,73.063622 182.230774,78.719551 182.838486,84.030289 
	C184.529617,98.808891 185.935410,113.617668 187.888794,128.373123 
	C188.806015,135.301544 188.450150,142.376953 190.506638,149.201111 
	C190.842255,150.314789 189.703491,151.872757 189.101807,153.553528 
	C187.417175,155.239578 185.559189,155.067383 183.748505,154.856857 
	C182.786407,154.745010 181.356339,154.093628 182.154800,153.071136 
	C184.835953,149.637680 183.163437,145.869659 182.776825,142.551559 
	C180.655289,124.343742 178.756134,106.115715 176.940491,87.876312 
	C176.372025,82.165527 174.760437,76.546013 175.820831,70.385422 
z"/>
<path fill="#000000" opacity="1.000000" stroke="none" 
	d="
M224.480362,105.121735 
	C224.047806,99.840324 228.704605,97.708679 231.336075,94.575691 
	C234.199432,91.166611 238.248688,88.369583 242.886780,86.433197 
	C246.798553,84.669670 248.213745,86.005417 249.184128,89.932457 
	C250.628540,95.777901 254.982513,98.627075 260.866089,99.029984 
	C262.004974,99.107971 263.858795,98.255180 263.913818,100.414963 
	C263.957672,102.136078 264.788910,104.217407 262.877594,105.470024 
	C261.362854,106.462746 259.868195,106.225410 258.415680,104.939606 
	C254.358612,101.348244 249.839523,100.705261 244.450226,101.822151 
	C239.977402,102.749107 237.963547,105.762070 235.341858,108.941101 
	C235.244141,105.506012 233.571777,104.159904 230.283798,105.369308 
	C228.363480,106.075653 226.637726,106.404701 224.480362,105.121735 
z"/>
<path fill="#000000" opacity="1.000000" stroke="none" 
	d="
M252.126328,200.004700 
	C248.979630,200.400543 247.837219,199.550491 247.929764,196.563278 
	C248.146072,189.582169 248.119644,182.586700 247.939667,175.603531 
	C247.868805,172.854477 248.576233,171.941422 251.474213,171.923691 
	C260.005035,171.871475 260.004425,171.728302 260.003845,180.044128 
	C260.003510,184.869049 260.079742,189.695724 259.969360,194.518143 
	C259.911743,197.035751 260.132935,199.161835 263.217255,200.004791 
	C259.679230,200.004791 256.141174,200.004791 252.126328,200.004700 
z"/>
<path fill="#000000" opacity="1.000000" stroke="none" 
	d="
M270.320312,75.752083 
	C271.229767,76.651306 272.201050,77.395554 272.746796,78.376534 
	C273.934387,80.511230 274.961700,82.500854 270.983887,83.125061 
	C267.520264,83.668587 264.213470,85.146706 260.774323,85.938034 
	C259.067322,86.330811 257.918213,86.913864 258.070465,88.755226 
	C258.220123,90.565659 259.819061,90.090096 260.770294,89.950081 
	C264.738220,89.366104 263.806885,92.118073 264.031006,94.310097 
	C264.323700,97.172401 262.588043,97.019180 260.644257,97.020683 
	C255.893005,97.024368 251.508392,93.039024 250.140076,87.335663 
	C249.176041,83.317390 252.324448,77.192581 256.191589,74.919235 
	C260.741760,72.244339 265.106537,72.994102 269.834686,75.247437 
	C270.141083,75.429619 270.189209,75.704453 270.320312,75.752083 
z"/>
<path fill="#000000" opacity="1.000000" stroke="none" 
	d="
M265.801819,107.409546 
	C267.522919,105.246933 269.865021,106.463623 271.601044,105.285965 
	C272.946442,104.373299 274.015442,105.140808 274.010071,107.022812 
	C273.974854,119.320984 273.967224,131.619400 274.014069,143.917480 
	C274.021301,145.819656 273.013611,146.056778 271.505096,146.006348 
	C269.678986,145.945328 267.849335,145.990814 265.571350,145.974960 
	C263.704254,137.532928 264.702179,129.045135 264.578857,120.589310 
	C264.516724,116.328682 263.596985,111.926353 265.801819,107.409546 
z"/>
<path fill="#000000" opacity="1.000000" stroke="none" 
	d="
M244.119293,125.021477 
	C238.889557,123.128273 235.330414,120.100334 236.099045,114.482162 
	C236.889572,108.703941 240.168243,104.718056 246.153763,103.345146 
	C250.550781,102.336594 253.905197,104.105141 257.825226,107.256493 
	C253.811783,108.320786 250.638092,109.243652 247.421677,109.979897 
	C245.889465,110.330627 245.018173,111.061241 245.041046,112.624191 
	C245.069290,114.554184 246.663010,114.076851 247.619186,113.949738 
	C250.703278,113.539764 251.287521,115.091888 251.024307,117.688232 
	C250.873886,119.172020 251.189148,120.715599 250.945740,122.174011 
	C250.677429,123.781853 252.175613,126.067589 249.782242,126.896133 
	C247.787689,127.586609 245.861374,126.882988 244.119293,125.021477 
z"/>
<path fill="#000000" opacity="1.000000" stroke="none" 
	d="
M263.658539,147.671661 
	C273.997314,148.373428 273.997284,148.373428 273.997101,158.539124 
	C273.997070,160.535309 274.091034,162.537033 273.973755,164.526306 
	C273.824921,167.050400 274.146271,169.160385 277.225159,169.755112 
	C276.833496,169.832489 276.435699,169.999802 276.051117,169.973541 
	C271.467133,169.660385 265.354736,172.012131 262.732269,169.009033 
	C260.478729,166.428421 262.079163,160.469238 262.005463,156.003510 
	C261.967010,153.675247 261.993378,151.345886 262.016418,148.554871 
	C262.379639,147.700958 262.806732,147.507111 263.658539,147.671661 
z"/>
<path fill="#000000" opacity="1.000000" stroke="none" 
	d="
M222.833420,141.815674 
	C219.282120,137.307953 216.219620,132.951843 213.215088,128.556107 
	C211.993347,126.768684 211.743225,125.158119 213.844254,123.580315 
	C216.194855,121.815086 217.114151,118.745872 219.677917,117.013863 
	C227.449493,111.763634 227.318710,111.765259 232.979370,119.397118 
	C234.533493,121.492424 233.758438,122.155624 231.931015,122.980553 
	C223.213043,126.915970 220.737839,131.702515 223.045471,140.519089 
	C223.169327,141.267319 223.257431,141.609314 222.833420,141.815674 
z"/>
<path fill="#000000" opacity="1.000000" stroke="none" 
	d="
M65.418396,98.820396 
	C64.389549,92.487541 67.832878,87.554939 71.557060,83.134140 
	C76.200340,77.622337 82.496346,74.247101 89.512154,72.076614 
	C83.319290,77.177299 80.841965,83.369713 82.938705,91.551254 
	C76.823853,93.322021 70.989258,95.263458 65.418396,98.820396 
z"/>
<path fill="#000000" opacity="1.000000" stroke="none" 
	d="
M124.003128,193.578735 
	C124.450356,203.622314 119.716690,210.646469 112.092224,217.146851 
	C112.315140,210.100708 111.631371,203.765793 107.798065,198.304398 
	C106.911057,197.040665 107.895416,197.084167 108.585289,196.838928 
	C113.552284,195.073364 118.499855,193.247375 123.513161,191.624542 
	C124.210388,191.398849 123.812920,192.632629 124.003128,193.578735 
z"/>
<path fill="#000000" opacity="1.000000" stroke="none" 
	d="
M52.304585,127.578491 
	C50.643551,123.055565 52.002666,119.008369 53.440365,115.253960 
	C55.237656,110.560509 58.577152,106.739487 62.710999,102.835693 
	C63.067299,109.341057 64.797348,114.794540 68.145599,119.593536 
	C70.409851,122.838852 66.651649,122.713837 65.984085,122.807205 
	C61.081482,123.492889 56.977219,126.097595 52.304585,127.578491 
z"/>
<path fill="#000000" opacity="1.000000" stroke="none" 
	d="
M260.002930,151.472824 
	C260.002563,155.751709 260.000458,159.579361 260.002075,163.407013 
	C260.005066,170.365067 260.005981,170.365067 253.003479,169.715851 
	C253.003479,163.628845 252.945587,157.577194 253.047592,151.528244 
	C253.070694,150.158173 252.013885,147.905304 254.985458,147.986694 
	C255.963379,148.013504 257.058868,148.057404 256.985229,146.517868 
	C256.931885,145.403107 256.439880,144.413818 255.425400,144.224060 
	C250.628647,143.326767 253.178207,139.647369 253.227539,137.475449 
	C253.290985,134.680923 256.667511,136.210144 258.407349,135.176056 
	C259.839844,134.324661 260.119232,136.204208 259.966614,137.325500 
	C259.578705,140.175247 260.895508,143.130829 258.806152,145.941025 
	C257.666687,147.473618 261.091705,148.917984 260.002930,151.472824 
z"/>
<path fill="#000000" opacity="1.000000" stroke="none" 
	d="
M70.786163,229.576172 
	C69.559250,230.885254 68.507347,231.875031 67.049515,233.246780 
	C62.993645,224.459625 59.089638,216.001480 55.027191,207.200058 
	C60.677765,206.683060 62.832264,211.709564 66.268265,214.124649 
	C69.962486,216.721207 73.702118,219.212509 77.729698,221.517380 
	C73.536407,222.571365 72.631310,226.241684 70.786163,229.576172 
z"/>
<path fill="#000000" opacity="1.000000" stroke="none" 
	d="
M102.880989,90.144882 
	C108.358284,85.698822 108.340164,85.709152 112.031708,92.184402 
	C114.918320,97.247749 117.857071,102.281364 121.451736,108.503670 
	C110.931038,106.914421 105.505478,97.880806 95.707642,95.851326 
	C99.036560,94.340935 102.090996,93.896156 103.000259,90.371895 
	C103.006088,90.016403 102.920654,90.100121 102.880989,90.144882 
z"/>
<path fill="#000000" opacity="1.000000" stroke="none" 
	d="
M89.774490,222.998047 
	C78.734474,221.866440 70.904213,215.667526 63.200176,208.757996 
	C73.773254,206.951752 89.356026,212.295700 91.236801,220.537231 
	C91.595390,222.108536 92.423431,222.924774 89.774490,222.998047 
z"/>
<path fill="#FF59A6" opacity="1.000000" stroke="none" 
	d="
M175.805725,70.095711 
	C176.304443,78.690277 177.690063,87.201538 178.852158,95.747101 
	C179.796509,102.691658 180.319901,109.694176 180.997620,116.674126 
	C182.054214,127.556084 182.759583,138.488800 184.363663,149.288635 
	C184.740219,151.823807 183.667282,152.494476 182.294037,153.983765 
	C184.502060,153.983765 186.321030,153.983765 188.548706,153.932724 
	C188.957413,153.881683 188.975220,154.358322 188.985382,154.596603 
	C185.660370,157.078217 181.928650,155.807571 178.388977,155.881287 
	C176.335861,155.924042 176.667923,153.480316 177.633560,153.261566 
	C186.431366,151.268494 181.597153,144.731232 181.537506,140.475815 
	C181.430786,132.863083 179.932404,125.268677 178.996063,117.669029 
	C177.621323,106.511162 176.852768,95.291092 175.237244,84.147919 
	C174.659134,80.160477 174.144211,76.054588 173.970245,71.539108 
	C174.465195,70.788696 174.982422,70.467491 175.805725,70.095711 
z"/>
<path fill="#000000" opacity="1.000000" stroke="none" 
	d="
M134.776093,177.567169 
	C132.226440,181.436234 129.341248,184.466492 125.851974,187.317307 
	C124.376389,183.720764 123.100845,180.489578 121.727676,177.300430 
	C120.444519,174.320343 120.516319,172.559753 124.491035,171.844177 
	C128.058121,171.201996 131.613480,169.952881 134.870789,168.095169 
	C135.455627,167.761612 136.346741,166.538361 137.336990,167.846909 
	C137.896179,168.585831 137.799973,169.114563 137.565704,170.012604 
	C136.913483,172.512985 136.186768,174.954651 134.776093,177.567169 
z"/>
<path fill="#000000" opacity="1.000000" stroke="none" 
	d="
M88.770401,119.020935 
	C89.016968,119.329613 89.316284,120.082466 89.763588,119.459259 
	C93.583939,114.136635 95.748024,117.379402 97.487602,121.074539 
	C99.133041,124.569740 101.912582,127.463623 103.006378,131.666840 
	C95.182228,132.676041 88.974251,128.938568 82.237679,125.425514 
	C85.848564,124.486061 88.772369,123.016464 89.255913,119.125671 
	C88.845146,118.952026 88.808815,119.019775 88.770401,119.020935 
z"/>
<path fill="#000000" opacity="1.000000" stroke="none" 
	d="
M262.483582,144.120270 
	C260.241699,141.705307 260.876678,139.075577 261.087799,136.712357 
	C261.425720,132.929230 259.600922,132.447311 256.682159,133.177551 
	C255.387787,133.501389 253.838882,135.176041 253.141327,132.844528 
	C252.646011,131.188980 252.532089,129.125885 254.647079,128.075760 
	C262.543579,124.154999 264.609406,117.853836 261.843658,109.826309 
	C261.184296,107.912575 261.877258,107.954605 263.582977,108.064438 
	C264.452911,108.574257 264.844543,109.138657 264.862274,109.812485 
	C265.139618,120.360138 264.986969,130.909546 264.943146,141.458298 
	C264.937469,142.821594 264.667114,144.140503 262.483582,144.120270 
z"/>
<path fill="#000000" opacity="1.000000" stroke="none" 
	d="
M53.564888,143.681274 
	C47.667763,144.243835 43.353504,147.741409 38.104862,149.819687 
	C39.329567,143.211044 43.158356,138.354050 47.662220,133.922592 
	C48.758991,132.843445 50.367508,131.824326 50.917725,134.308548 
	C51.617065,137.466049 53.779434,140.115662 53.564888,143.681274 
z"/>
<path fill="#000000" opacity="1.000000" stroke="none" 
	d="
M200.387344,152.143738 
	C194.302826,144.393417 194.311615,144.400650 200.057190,137.429123 
	C201.170883,136.077789 202.186340,134.645493 203.568756,133.148956 
	C205.608643,136.682297 205.338531,140.683533 205.980576,144.515625 
	C206.168976,145.640213 205.917496,146.816742 206.375809,147.929916 
	C208.175552,152.301300 207.504700,153.191422 202.624954,152.944626 
	C201.957291,152.910873 201.331268,152.703705 200.387344,152.143738 
z"/>
<path fill="#000000" opacity="1.000000" stroke="none" 
	d="
M99.741920,171.754883 
	C98.350479,174.575516 97.085869,177.037674 94.273415,178.882294 
	C91.479561,174.239685 88.829849,169.570297 87.425781,164.274445 
	C93.641968,162.539871 98.402664,168.453659 104.752151,167.200470 
	C101.555565,167.242554 101.276443,169.927765 99.741920,171.754883 
z"/>
<path fill="#000000" opacity="1.000000" stroke="none" 
	d="
M259.303528,109.827454 
	C262.747498,117.246536 260.592468,122.980400 253.002747,126.087914 
	C253.002747,123.308327 252.733887,120.733253 253.063019,118.237022 
	C253.617844,114.028847 252.356964,111.958961 247.626740,112.795769 
	C251.406021,111.172371 254.974792,109.565231 259.303528,109.827454 
z"/>
<path fill="#000000" opacity="1.000000" stroke="none" 
	d="
M89.749657,100.245773 
	C88.238503,99.032417 87.798889,97.640411 87.356972,95.991264 
	C96.458298,96.623085 103.677818,101.051529 111.377190,106.749084 
	C102.715935,107.575958 95.832153,105.839165 89.749657,100.245773 
z"/>
<path fill="#000000" opacity="1.000000" stroke="none" 
	d="
M239.059143,151.091156 
	C239.228149,150.552475 239.335449,150.370773 239.475876,150.339920 
	C250.996887,147.808731 250.997055,147.809601 250.997223,159.596390 
	C250.997223,160.093475 251.126465,160.634293 250.975479,161.080261 
	C250.217133,163.320114 252.871475,167.407013 249.414780,167.612762 
	C246.572952,167.781906 248.787186,163.079910 247.016510,161.151749 
	C246.933456,161.061295 247.014282,160.829178 247.001144,160.664444 
	C246.442871,153.657501 246.442627,153.657516 239.465515,155.570755 
	C238.547455,154.319931 239.195251,152.859177 239.059143,151.091156 
z"/>
<path fill="#000000" opacity="1.000000" stroke="none" 
	d="
M80.306374,155.824997 
	C72.196465,154.430939 65.092903,151.605698 59.308189,145.814819 
	C66.456818,143.907196 77.894623,149.268997 80.306374,155.824997 
z"/>
<path fill="#000000" opacity="1.000000" stroke="none" 
	d="
M273.793488,90.530182 
	C272.290680,94.239861 269.500092,95.675453 266.239746,96.527237 
	C265.729309,89.294670 265.729309,89.294670 260.014557,88.585907 
	C265.256500,86.958466 269.879425,85.523216 274.535736,84.077591 
	C275.516357,86.262688 274.988739,88.243813 273.793488,90.530182 
z"/>
<path fill="#000000" opacity="1.000000" stroke="none" 
	d="
M69.841873,117.814156 
	C66.507195,114.563194 65.710693,110.538261 65.113754,106.657570 
	C64.270393,101.174881 68.917755,97.197731 77.206749,96.190559 
	C69.669815,101.341171 68.121727,108.154442 70.042801,116.512146 
	C70.168938,117.263603 70.259178,117.599640 69.841873,117.814156 
z"/>
<path fill="#FF56A9" opacity="1.000000" stroke="none" 
	d="
M262.037048,144.307327 
	C265.138611,144.127213 263.934479,141.738892 263.945953,140.449493 
	C264.039246,129.978531 263.995667,119.506355 263.973175,108.573433 
	C264.469177,107.790253 264.985840,107.468193 265.808533,107.095024 
	C266.075378,118.159416 266.066895,129.275192 265.962311,140.390076 
	C265.947449,141.973358 266.606720,143.703308 265.243469,145.557266 
	C264.791809,146.402176 264.462128,146.844650 264.062927,147.559586 
	C263.560364,147.889923 263.127319,147.947784 262.368347,148.049194 
	C262.037109,146.971115 262.031860,145.849487 262.037048,144.307327 
z"/>
<path fill="#000000" opacity="1.000000" stroke="none" 
	d="
M68.081863,154.015289 
	C71.922974,156.796585 76.342003,156.624832 80.269592,157.934509 
	C81.605644,158.380005 83.122124,158.651031 82.714798,160.273071 
	C82.365425,161.664352 80.738274,160.937164 79.698517,160.973785 
	C71.324646,161.268661 63.009972,156.544708 60.475929,149.878677 
	C63.033241,151.322189 65.366257,152.639099 68.081863,154.015289 
z"/>
<path fill="#FF59A7" opacity="1.000000" stroke="none" 
	d="
M200.155670,152.149933 
	C201.188431,151.911789 202.412079,152.231766 203.455765,151.929764 
	C204.811859,151.537369 210.088760,154.428589 205.768204,148.547958 
	C203.234619,145.099533 204.454529,138.893387 203.938217,133.487549 
	C204.166641,132.808258 204.442871,132.569153 204.884186,132.110413 
	C206.754959,136.000336 206.217163,140.450912 206.878586,144.720764 
	C207.287949,147.363495 207.481964,149.469635 210.747330,148.957779 
	C212.946274,148.613083 213.469971,150.382950 213.615753,151.517853 
	C213.745163,152.525101 212.221375,152.920761 210.955200,153.041168 
	C208.044281,153.318008 205.157745,153.851578 202.048035,154.634155 
	C201.311996,154.135376 200.789276,153.283417 200.155670,152.149933 
z"/>
<path fill="#000000" opacity="1.000000" stroke="none" 
	d="
M225.102936,110.964645 
	C220.957901,113.449867 217.322784,116.022499 214.323181,119.461769 
	C213.407516,117.687660 213.680679,115.603844 213.645325,113.890739 
	C213.529755,108.293755 218.810501,109.297272 222.107635,108.146584 
	C223.862915,107.533997 226.229355,107.686707 225.102936,110.964645 
z"/>
<path fill="#000000" opacity="1.000000" stroke="none" 
	d="
M135.989288,153.582886 
	C136.014420,155.319946 135.834885,156.683884 136.079620,157.966888 
	C137.365036,164.705658 135.395111,167.229218 127.494034,167.700577 
	C133.788940,163.277100 135.678268,157.667664 134.548096,150.659836 
	C134.818054,151.069153 135.109253,151.466339 135.351898,151.891251 
	C135.587311,152.303497 135.772903,152.744217 135.989288,153.582886 
z"/>
<path fill="#000000" opacity="1.000000" stroke="none" 
	d="
M184.178101,175.838104 
	C186.348480,172.435715 188.370987,169.521530 191.543472,167.273743 
	C192.791992,169.545120 190.656555,172.979965 194.256287,174.382812 
	C195.097565,174.710678 193.655884,175.881302 192.827652,175.929123 
	C190.538269,176.061356 188.237244,175.992111 185.503372,176.038284 
	C184.728485,176.165176 184.391052,176.256287 184.178101,175.838104 
z"/>
<path fill="#000000" opacity="1.000000" stroke="none" 
	d="
M57.653934,131.817017 
	C56.722569,134.028946 56.048206,135.959900 55.249657,138.246460 
	C53.066948,136.315399 51.580582,133.136765 52.470078,131.587189 
	C54.509563,128.034271 58.700588,127.001923 63.287025,125.566826 
	C61.535198,128.474045 58.214149,128.612656 57.653934,131.817017 
z"/>
<path fill="#000000" opacity="1.000000" stroke="none" 
	d="
M236.996948,154.826324 
	C235.381104,158.777710 233.121445,157.223206 231.320831,155.707001 
	C230.039902,154.628357 229.313812,152.890808 228.592804,150.941208 
	C230.554901,154.581436 237.255386,144.811707 236.996948,154.826324 
z"/>
<path fill="#000000" opacity="1.000000" stroke="none" 
	d="
M68.158958,173.183289 
	C71.603569,176.363342 74.539764,179.423935 77.474167,182.481415 
	C69.756737,185.562775 70.430794,178.275421 67.963608,174.445770 
	C67.830833,173.736450 67.740685,173.400146 68.158958,173.183289 
z"/>
<path fill="#000000" opacity="1.000000" stroke="none" 
	d="
M108.161385,144.136536 
	C105.786842,140.889038 102.908463,138.082687 98.650749,135.493622 
	C101.612511,134.937622 104.844559,133.914307 105.627724,135.839310 
	C106.703636,138.483871 111.023598,140.120453 108.393837,144.000732 
	C108.034004,144.013489 108.117325,144.097214 108.161385,144.136536 
z"/>
<path fill="#000000" opacity="1.000000" stroke="none" 
	d="
M123.915436,187.970413 
	C121.316513,189.852921 118.760925,191.442520 114.823502,192.494492 
	C117.265800,188.504623 121.178429,186.614090 121.180855,182.278946 
	C123.125992,183.787598 122.624710,186.120193 123.915436,187.970413 
z"/>
<path fill="#000000" opacity="1.000000" stroke="none" 
	d="
M243.178589,146.830231 
	C243.981339,145.600662 244.526398,144.506439 245.336929,144.249466 
	C246.945450,143.739441 246.159760,140.008240 248.861816,141.541031 
	C250.229721,142.316986 251.210388,144.166641 250.864227,145.669510 
	C250.288635,148.168549 247.923676,146.543839 246.400146,146.965134 
	C245.943008,147.091553 245.424316,146.995407 244.502472,147.039352 
	C243.727707,147.166367 243.384338,147.255264 243.178589,146.830231 
z"/>
<path fill="#000000" opacity="1.000000" stroke="none" 
	d="
M208.999481,114.941612 
	C207.460052,116.980316 205.972092,118.652634 204.227066,120.613861 
	C204.046112,117.711998 203.881866,115.078255 203.673615,111.738762 
	C205.041412,114.101028 208.299667,111.120567 208.999481,114.941612 
z"/>
<path fill="#000000" opacity="1.000000" stroke="none" 
	d="
M234.953552,108.938568 
	C235.644714,111.607841 233.577194,113.895615 233.884796,116.623169 
	C228.699036,111.667076 228.733490,111.154282 234.671753,109.029709 
	C235.059433,109.042580 234.987320,108.974754 234.953552,108.938568 
z"/>
<path fill="#000000" opacity="1.000000" stroke="none" 
	d="
M197.011292,151.127899 
	C196.918015,154.446365 194.708939,152.512985 193.513763,152.923828 
	C192.661362,153.216812 192.031662,152.654816 192.005051,151.557083 
	C191.971420,150.168930 192.876724,149.339127 193.820236,148.811768 
	C195.808044,147.700729 195.930191,150.050446 197.011292,151.127899 
z"/>
<path fill="#000000" opacity="1.000000" stroke="none" 
	d="
M225.045197,146.840637 
	C224.984085,145.089203 225.057892,143.969131 226.774811,145.233017 
	C227.939423,146.090317 229.059555,147.094467 230.362717,147.650986 
	C231.491089,148.132843 232.849121,148.076889 234.049332,148.685883 
	C231.060638,148.170242 227.702301,150.714554 225.045197,146.840637 
z"/>
<path fill="#000000" opacity="1.000000" stroke="none" 
	d="
M211.317810,119.211899 
	C210.649353,120.962563 210.089630,122.680603 208.177933,121.573616 
	C206.144012,120.395859 208.055618,119.358063 208.865417,118.731773 
	C210.049820,117.815796 209.747726,115.799713 211.595184,115.401604 
	C212.269730,116.588676 212.147903,117.758255 211.317810,119.211899 
z"/>
<path fill="#000000" opacity="1.000000" stroke="none" 
	d="
M193.433441,155.311447 
	C195.957199,155.733093 198.834152,152.964050 200.777893,156.699448 
	C198.368729,156.953568 196.203537,157.204086 194.033707,157.404068 
	C192.194565,157.573563 193.373871,156.189713 193.433441,155.311447 
z"/>
<path fill="#000000" opacity="1.000000" stroke="none" 
	d="
M87.263596,161.971863 
	C85.983376,161.511063 84.961136,160.984879 85.159737,159.894897 
	C85.400856,158.571548 86.696747,158.961899 87.544907,159.057007 
	C89.145844,159.236557 90.480476,160.051132 92.235054,161.741776 
	C90.258171,161.850922 88.961838,161.922485 87.263596,161.971863 
z"/>
<path fill="#000000" opacity="1.000000" stroke="none" 
	d="
M248.694717,132.335175 
	C248.048172,130.776779 247.138962,129.392319 249.379745,129.049408 
	C250.758133,128.838486 251.116943,129.753983 250.965729,130.844345 
	C250.779572,132.186569 251.819351,134.118210 250.146103,134.733109 
	C248.771500,135.238251 249.170090,133.510178 248.694717,132.335175 
z"/>
<path fill="#000000" opacity="1.000000" stroke="none" 
	d="
M207.296539,110.993820 
	C206.621658,110.916428 206.308029,110.865005 206.014450,110.758354 
	C205.880035,110.709518 205.785126,110.551994 205.672318,110.443764 
	C207.531631,109.361336 209.916901,110.741028 211.708038,109.169144 
	C211.845459,109.048553 212.741730,109.405769 212.823013,109.678612 
	C213.097992,110.601616 212.421066,111.216316 211.729706,111.637291 
	C210.230865,112.549919 209.164841,110.341835 207.296539,110.993820 
z"/>
<path fill="#000000" opacity="1.000000" stroke="none" 
	d="
M219.915619,104.429207 
	C220.919113,103.918686 221.718063,103.980591 222.581482,104.921265 
	C222.633652,106.391495 221.136246,106.052559 220.395477,106.823837 
	C220.053040,107.180389 218.729919,107.397171 218.509750,106.506569 
	C218.396484,106.048531 219.331360,105.331352 219.915619,104.429207 
z"/>
<path fill="#000000" opacity="1.000000" stroke="none" 
	d="
M120.583176,110.779129 
	C122.615135,111.061493 124.213905,111.553535 123.652596,113.397095 
	C123.277214,114.629997 122.069153,113.398956 121.008286,113.628258 
	C120.781059,114.010918 120.857529,114.016342 120.866913,114.051682 
	C122.489365,113.444038 120.961266,112.871819 120.556961,111.954773 
	C120.217018,111.308418 120.155434,110.975311 120.583176,110.779129 
z"/>
<path fill="#000000" opacity="1.000000" stroke="none" 
	d="
M243.883972,146.885590 
	C243.392090,148.428101 242.369705,148.091919 241.323120,147.636841 
	C241.821991,147.331650 242.320847,147.026474 243.067978,146.518799 
	C243.443100,146.442093 243.569962,146.567902 243.883972,146.885590 
z"/>
<path fill="#000000" opacity="1.000000" stroke="none" 
	d="
M222.889679,141.112381 
	C224.077072,141.766159 224.931503,142.951645 224.012589,143.989334 
	C223.608093,144.446121 223.075821,143.012527 222.563873,141.983643 
	C222.446915,141.553146 222.572525,141.426315 222.889679,141.112381 
z"/>
<path fill="#000000" opacity="1.000000" stroke="none" 
	d="
M184.877457,175.885315 
	C184.743042,176.914642 184.196854,177.222137 183.397842,176.695053 
	C183.355103,176.666824 183.697647,176.054550 184.081711,175.521484 
	C184.431396,175.451401 184.560181,175.573990 184.877457,175.885315 
z"/>
<path fill="#000000" opacity="1.000000" stroke="none" 
	d="
M120.479355,111.462639 
	C119.972221,111.183296 118.976875,111.024902 119.532822,110.232552 
	C119.657074,110.055458 120.398239,110.311218 120.963943,110.641876 
	C120.941711,111.038628 120.810898,111.161186 120.479355,111.462639 
z"/>
<path fill="#000000" opacity="1.000000" stroke="none" 
	d="
M68.109833,173.882446 
	C67.081467,173.747696 66.783630,173.197739 67.303581,172.402512 
	C67.330986,172.360626 67.942352,172.700577 68.474625,173.082764 
	C68.544487,173.432541 68.421585,173.562332 68.109833,173.882446 
z"/>
<path fill="#000000" opacity="1.000000" stroke="none" 
	d="
M69.890472,117.116791 
	C70.918831,117.252556 71.215347,117.802658 70.695961,118.598152 
	C70.669464,118.638718 70.058052,118.297386 69.526642,117.913254 
	C69.456963,117.563766 69.579628,117.434891 69.890472,117.116791 
z"/>
<path fill="#000000" opacity="1.000000" stroke="none" 
	d="
M564.455566,141.595917 
	C575.531372,149.981125 574.371521,164.675446 566.353210,172.151779 
	C562.178589,176.044205 561.070435,176.112030 559.104736,171.090591 
	C555.570312,162.061752 549.608398,155.753082 540.719421,151.851624 
	C537.362610,150.378311 534.402100,147.930450 531.405273,145.730194 
	C528.762024,143.789505 528.961243,141.516861 531.203491,139.277847 
	C534.173157,136.312439 539.792358,136.242081 544.358215,138.868622 
	C552.289673,143.431213 555.217407,151.536148 558.947571,159.084549 
	C559.443848,160.088821 559.601807,161.257492 560.073181,162.277618 
	C560.584412,163.383987 561.454468,164.161133 562.804443,163.953995 
	C564.619629,163.675491 563.955750,162.188751 563.970459,161.193253 
	C564.065674,154.715271 564.070557,148.235962 564.455566,141.595917 
z"/>
<path fill="#000000" opacity="1.000000" stroke="none" 
	d="
M533.000549,227.627823 
	C531.334412,219.141571 527.082336,213.019211 519.602234,209.183517 
	C514.545227,206.590363 509.451752,204.017990 505.365906,199.886917 
	C499.207520,193.660324 499.514008,190.997665 508.000214,185.531311 
	C508.000214,188.908813 507.993439,191.756836 508.001862,194.604813 
	C508.012573,198.214508 509.812500,199.644913 513.318237,198.871384 
	C515.896057,198.302612 518.465027,195.901703 521.069092,197.716415 
	C525.742310,200.972977 532.201843,202.575516 533.061890,209.738586 
	C533.206665,210.944595 533.729614,212.200424 534.943176,212.944534 
	C536.738831,212.178009 536.183350,210.492691 535.916199,209.514572 
	C534.440613,204.111450 538.613647,204.072479 541.781738,203.083572 
	C543.157959,202.653992 543.748413,203.485641 544.316956,204.677643 
	C548.289917,213.007355 543.131958,226.570267 534.113892,229.379135 
	C532.497314,229.882660 533.224426,228.589951 533.000549,227.627823 
z"/>
<path fill="#000000" opacity="1.000000" stroke="none" 
	d="
M553.806824,167.512726 
	C554.478455,170.874115 552.488647,172.234421 550.304199,173.715332 
	C549.598999,165.321823 549.598999,165.321808 541.813721,167.063126 
	C537.619507,168.001236 532.577087,165.840332 530.646423,162.165359 
	C528.912170,158.864304 527.356323,155.468674 525.584656,152.188797 
	C525.117126,151.323257 525.120544,149.775009 523.389893,150.007950 
	C521.677490,150.238449 521.438293,151.820740 521.195068,152.864151 
	C520.789734,154.603088 521.078918,156.494766 520.979187,158.316849 
	C520.889526,159.955887 521.777161,162.294571 518.615112,162.002640 
	C516.199158,161.779602 513.260437,163.074966 512.162415,159.372070 
	C510.165314,152.636948 513.058044,142.747040 518.344238,138.127899 
	C521.201111,135.631561 523.421631,135.384872 524.766174,139.435120 
	C527.237427,146.879410 529.834656,154.076126 537.936829,157.563568 
	C541.932068,159.283264 545.911560,161.143631 549.540405,163.720123 
	C551.034912,164.781265 552.265869,166.046265 553.806824,167.512726 
z"/>
<path fill="#000000" opacity="1.000000" stroke="none" 
	d="
M525.540100,132.958679 
	C524.676025,121.197708 527.852295,114.831726 535.875671,111.629776 
	C540.861145,109.640221 546.068848,109.799942 551.396912,110.421112 
	C547.047241,110.851341 542.917358,111.690002 541.037415,116.230698 
	C538.762207,121.726181 540.622253,126.930237 546.519531,130.776642 
	C549.741089,132.877838 553.303772,134.455887 556.796753,136.613953 
	C554.011047,138.379242 551.682007,137.662903 548.841553,136.113113 
	C541.730591,132.233322 534.052246,130.598267 525.540100,132.958679 
z"/>
<path fill="#000000" opacity="1.000000" stroke="none" 
	d="
M534.151978,187.049332 
	C526.237000,188.843109 521.700623,183.875336 517.101868,179.466461 
	C514.415161,176.890717 514.086792,173.616501 516.613342,170.156631 
	C522.082581,176.142792 529.610962,178.752777 536.068909,183.024384 
	C540.178223,185.742493 542.331970,189.331177 540.871155,194.264114 
	C535.914429,194.289383 536.866211,189.293518 534.151978,187.049332 
z"/>
<path fill="#000000" opacity="1.000000" stroke="none" 
	d="
M541.641968,183.837433 
	C544.324524,186.009186 544.554993,189.099136 545.860535,191.657394 
	C546.518250,192.946320 547.057129,194.070862 548.641296,193.936203 
	C550.862061,193.747437 549.886658,191.941025 549.952454,190.837082 
	C550.100830,188.345978 550.059570,185.838196 549.982178,183.340698 
	C549.921143,181.371094 550.050293,180.360718 552.667603,179.824844 
	C560.112244,178.300629 560.045715,178.019272 559.002075,185.271530 
	C558.043030,191.935181 554.499207,196.560425 548.318848,199.295059 
	C544.679443,200.905426 542.768188,199.571671 542.904114,195.430359 
	C543.016541,192.000702 543.633728,188.481140 541.533447,184.946411 
	C541.256042,184.343842 541.230652,184.048401 541.641968,183.837433 
z"/>
<path fill="#000000" opacity="1.000000" stroke="none" 
	d="
M509.874023,174.073456 
	C509.384613,174.268692 509.278046,174.400650 509.211456,174.550369 
	C506.070068,181.617676 506.070496,181.617874 498.583344,183.870789 
	C497.089691,176.237411 501.839325,167.925705 509.163879,165.357040 
	C510.421021,164.916183 512.094849,164.400955 512.743042,165.614578 
	C513.445312,166.929611 515.603882,168.112869 514.029480,170.165070 
	C512.928467,171.600311 514.364746,175.492950 509.874023,174.073456 
z"/>
<path fill="#000000" opacity="1.000000" stroke="none" 
	d="
M550.580444,139.780823 
	C553.614868,140.691681 555.948608,139.317703 558.252014,138.822556 
	C561.721008,138.076828 562.080933,139.373367 562.030396,142.150558 
	C561.927734,147.795593 561.999695,153.443802 561.999695,160.723175 
	C558.180786,153.110703 555.923645,146.219711 550.505737,140.899811 
	C550.216675,140.309692 550.153748,139.976379 550.580444,139.780823 
z"/>
<path fill="#000000" opacity="1.000000" stroke="none" 
	d="
M518.004333,195.035721 
	C515.235413,195.798859 512.001709,198.489044 510.660095,196.422318 
	C509.208832,194.186676 509.867767,190.378082 510.134583,187.301376 
	C510.313446,185.239029 514.345398,185.652008 516.463684,188.045990 
	C517.415649,189.121826 518.048889,190.501526 519.075745,191.482773 
	C520.004822,192.370575 521.272583,192.903915 522.512878,193.668732 
	C520.596619,195.436096 519.425476,194.783691 518.004333,195.035721 
z"/>
<path fill="#000000" opacity="1.000000" stroke="none" 
	d="
M541.482544,184.461960 
	C537.258484,180.379105 531.346069,178.852112 526.725586,174.998596 
	C534.858582,172.282593 537.415710,173.716690 542.039429,183.559357 
	C541.946960,184.042816 541.815369,184.163727 541.482544,184.461960 
z"/>
<path fill="#000000" opacity="1.000000" stroke="none" 
	d="
M541.340942,173.101837 
	C540.097778,172.292664 539.234802,171.594788 537.916809,170.528885 
	C539.908447,169.927521 541.424561,169.385071 542.982727,169.023376 
	C544.502441,168.670593 546.065063,168.502594 547.609253,168.256500 
	C548.408752,174.748871 548.126587,174.986237 541.340942,173.101837 
z"/>
<path fill="#000000" opacity="1.000000" stroke="none" 
	d="
M527.831665,167.933411 
	C530.150269,167.782791 530.767273,169.837021 533.049072,170.504303 
	C530.741455,171.190781 528.976562,171.506790 527.407898,172.241562 
	C525.854980,172.968964 524.173828,173.834778 523.201050,172.088379 
	C522.580383,170.974136 522.589111,168.893341 523.250427,167.824036 
	C524.266174,166.181702 526.032227,166.796173 527.831665,167.933411 
z"/>
<path fill="#000000" opacity="1.000000" stroke="none" 
	d="
M526.934082,139.676727 
	C524.514832,134.896469 524.859924,134.210388 529.750122,134.022903 
	C532.549622,133.915558 535.356628,134.003448 538.310303,134.388245 
	C533.644348,134.590164 529.896667,136.229187 527.625061,140.403793 
	C527.596863,140.455597 527.373840,140.472275 527.313965,140.421036 
	C527.192871,140.317429 527.121399,140.155807 526.934082,139.676727 
z"/>
<path fill="#000000" opacity="1.000000" stroke="none" 
	d="
M523.003662,154.726379 
	C523.017883,154.006607 522.953735,153.651840 523.059082,153.357819 
	C523.436340,152.304581 523.691833,152.716797 524.052246,153.422409 
	C525.578003,156.409668 527.150024,159.373306 528.736877,162.406174 
	C523.002686,163.387741 523.002686,163.387741 523.003662,154.726379 
z"/>
<path fill="#000000" opacity="1.000000" stroke="none" 
	d="
M547.999512,183.890152 
	C547.999512,185.966599 547.999512,187.604813 547.999512,189.708771 
	C544.830933,186.708847 545.145996,182.606964 542.609680,179.675812 
	C547.175537,177.925873 548.575623,179.462784 547.999512,183.890152 
z"/>
<path fill="#000000" opacity="1.000000" stroke="none" 
	d="
M558.356079,174.828278 
	C556.682312,178.759811 553.207458,177.347198 549.943909,177.996155 
	C552.043640,175.742325 553.550659,173.331757 555.721008,172.012146 
	C558.013062,170.618561 557.867371,173.103760 558.356079,174.828278 
z"/>
<path fill="#000000" opacity="1.000000" stroke="none" 
	d="
M542.752380,155.319336 
	C544.507202,156.497391 546.540649,156.564468 548.056580,159.757156 
	C541.923706,156.719437 536.290039,155.343307 531.638489,149.795471 
	C536.586060,150.603104 538.843323,154.212082 542.752380,155.319336 
z"/>
<path fill="#000000" opacity="1.000000" stroke="none" 
	d="
M510.002869,179.305099 
	C510.033905,178.251053 509.802399,177.341827 510.147278,176.975983 
	C511.020630,176.049530 510.937500,177.318054 511.177246,177.658081 
	C511.545105,178.179871 511.779907,178.797699 512.054504,179.382584 
	C512.704163,180.766373 514.248413,181.878677 513.559631,183.642639 
	C513.445923,183.933868 512.263672,184.087555 511.733734,183.886719 
	C509.756348,183.137253 509.957092,181.358276 510.002869,179.305099 
z"/>
<path fill="#000000" opacity="1.000000" stroke="none" 
	d="
M538.049927,201.993576 
	C536.443726,200.768982 536.381531,200.569946 538.261047,199.982681 
	C539.306213,199.656113 539.642273,197.296082 541.280762,198.857925 
	C541.595825,199.158249 541.944336,199.735748 541.861938,200.088287 
	C541.437439,201.904938 539.993835,202.081451 538.049927,201.993576 
z"/>
<path fill="#000000" opacity="1.000000" stroke="none" 
	d="
M520.091614,164.082733 
	C516.762268,166.918976 516.762268,166.918976 514.171021,164.014847 
	C516.248047,164.014847 517.990479,164.014847 520.091614,164.082733 
z"/>
<path fill="#000000" opacity="1.000000" stroke="none" 
	d="
M536.031799,196.874100 
	C536.186157,195.825073 535.589600,194.552002 536.521057,194.544907 
	C537.589111,194.536774 538.745728,195.634216 538.539368,196.727020 
	C538.399902,197.465210 537.268555,198.921021 536.031799,196.874100 
z"/>
<path fill="#000000" opacity="1.000000" stroke="none" 
	d="
M520.975281,169.649170 
	C519.100830,171.330826 519.212646,168.992279 518.296570,168.567535 
	C518.954346,168.191544 519.609192,167.510422 520.270447,167.504227 
	C521.575684,167.491989 520.710083,168.695160 520.975281,169.649170 
z"/>
<path fill="#000000" opacity="1.000000" stroke="none" 
	d="
M496.391754,226.699570 
	C497.457245,222.818176 498.311737,226.917191 498.291962,226.928421 
	C498.525574,226.928421 497.604126,226.928421 496.391754,226.699570 
z"/>
<path fill="#000000" opacity="1.000000" stroke="none" 
	d="
M544.470032,176.031464 
	C545.588989,176.005264 546.360779,176.005264 547.132629,176.005264 
	C546.091248,177.040192 544.981201,177.235535 543.786560,176.647110 
	C543.737122,176.622757 543.712402,176.418411 543.757202,176.359436 
	C543.850281,176.236923 543.997803,176.155807 544.470032,176.031464 
z"/>
<path fill="#000000" opacity="1.000000" stroke="none" 
	d="
M550.224365,160.132507 
	C549.442139,161.118896 548.556824,161.173737 547.914368,160.104843 
	C547.798828,159.912704 547.787109,159.436188 547.900757,159.364044 
	C548.689087,158.863800 549.428650,158.987488 550.224365,160.132507 
z"/>
<path fill="#000000" opacity="1.000000" stroke="none" 
	d="
M517.417297,184.219910 
	C516.083435,183.735474 515.755859,183.183243 516.334412,182.375244 
	C516.364502,182.333237 516.986450,182.714935 517.528320,183.128174 
	C517.784790,183.690109 517.845703,184.023239 517.417297,184.219910 
z"/>
<path fill="#000000" opacity="1.000000" stroke="none" 
	d="
M550.479736,140.464325 
	C549.973022,140.184494 548.979187,140.026642 549.531067,139.233841 
	C549.653564,139.057831 550.396057,139.313385 550.961670,139.644394 
	C550.940002,140.040924 550.809753,140.163300 550.479736,140.464325 
z"/>
<path fill="#000000" opacity="1.000000" stroke="none" 
	d="
M517.522583,183.536072 
	C518.062866,183.799866 518.401855,184.242752 518.740845,184.685638 
	C518.209167,184.667969 517.677429,184.650299 517.036865,184.358047 
	C517.059143,183.960678 517.190247,183.837921 517.522583,183.536072 
z"/>
<path fill="#000000" opacity="1.000000" stroke="none" 
	d="
M530.441772,147.578766 
	C530.967712,147.845932 531.975830,148.305389 531.083496,148.790390 
	C530.242249,149.247620 530.152710,148.406708 530.441772,147.578766 
z"/>
<path fill="#000000" opacity="1.000000" stroke="none" 
	d="
M551.161377,161.869675 
	C551.743713,161.808105 552.843018,161.653595 552.372314,162.537186 
	C551.922424,163.381729 551.379822,162.727081 551.161377,161.869675 
z"/>
<path fill="#000000" opacity="1.000000" stroke="none" 
	d="
M355.909790,61.411285 
	C358.627808,56.859428 356.935425,52.021133 357.692963,47.544876 
	C359.383362,37.556549 359.485199,27.304628 360.374359,17.172396 
	C360.656555,13.956542 357.780640,15.683892 356.656189,14.437706 
	C364.086670,12.967079 371.416870,11.500754 378.754669,10.073752 
	C380.880402,9.660359 382.287964,10.072459 382.021698,12.787745 
	C381.174133,21.430889 380.776184,30.134859 379.515747,38.714138 
	C378.823700,43.424427 378.817657,48.159798 378.205017,52.872925 
	C376.599548,65.224586 376.118042,77.718010 374.953583,90.132889 
	C374.208740,98.073769 373.063141,105.977623 372.060822,113.893463 
	C371.749908,116.348900 373.461456,116.879669 375.268433,117.815773 
	C373.777100,117.884911 372.285797,117.954041 370.398224,118.095200 
	C366.349823,116.017372 367.570404,112.186348 368.233490,109.683777 
	C369.559174,104.680618 368.944336,99.627747 369.738556,94.622520 
	C371.219757,85.288155 371.120728,75.714508 372.087830,66.282326 
	C372.583557,61.447292 369.925690,61.570717 366.787201,62.120861 
	C364.420685,62.535694 362.151855,63.568336 359.781158,63.876408 
	C358.330383,64.064926 355.816040,65.103683 355.909790,61.411285 
z"/>
<path fill="#000000" opacity="1.000000" stroke="none" 
	d="
M355.007019,77.838562 
	C355.007294,76.209183 355.062347,75.040535 354.995148,73.878960 
	C354.714172,69.019562 356.288605,65.979080 361.676361,64.993271 
	C370.136688,63.445286 370.709991,63.229298 369.845886,71.908417 
	C368.647675,83.943123 368.219116,96.070862 366.080566,108.012032 
	C365.848999,109.305206 365.953430,110.672264 366.009766,112.000481 
	C366.133179,114.910294 366.483368,117.356537 361.912964,117.162827 
	C357.838867,116.990150 356.864349,115.646065 356.898804,111.834839 
	C356.948212,106.374573 358.734283,101.056503 357.997955,95.568382 
	C357.845917,94.435371 357.867706,92.375961 357.507294,92.306305 
	C348.846924,90.632408 356.196564,84.645805 354.496338,81.132782 
	C354.158630,80.434952 354.810150,79.258362 355.007019,77.838562 
z"/>
<path fill="#000000" opacity="1.000000" stroke="none" 
	d="
M343.996704,125.761940 
	C343.999786,124.629280 343.999939,123.964478 344.000061,123.299683 
	C344.001129,116.916138 347.081909,115.153412 352.996857,118.054695 
	C354.491028,118.787598 354.050507,120.035263 353.960175,121.032600 
	C353.134399,130.147614 352.168518,139.249863 351.324280,148.363312 
	C350.810242,153.912552 350.359802,159.470474 350.041687,165.033691 
	C349.918701,167.184479 349.739929,170.791458 348.281158,170.561722 
	C345.378479,170.104568 342.390137,170.524689 339.589050,169.683670 
	C338.620148,169.392761 339.036224,168.290649 339.181793,167.517410 
	C340.816589,158.833725 341.140747,150.004623 342.182312,141.265518 
	C342.778290,136.265381 342.229187,131.088440 343.996704,125.761940 
z"/>
<path fill="#000000" opacity="1.000000" stroke="none" 
	d="
M362.960754,147.714111 
	C362.243622,156.012192 359.418915,163.865433 362.302460,172.008316 
	C359.509521,172.823563 356.120453,170.351349 352.493073,170.931564 
	C351.131897,171.149277 350.900238,170.064148 351.063049,168.959412 
	C353.450928,152.756699 354.409058,136.409210 355.941620,120.121002 
	C356.159973,117.800369 357.365631,117.850975 358.906433,118.063423 
	C364.712830,118.864037 365.992004,120.699776 364.957367,126.714203 
	C363.788055,133.511200 363.013031,140.343765 362.960754,147.714111 
z"/>
<path fill="#000000" opacity="1.000000" stroke="none" 
	d="
M347.580566,200.787506 
	C348.119659,201.298416 350.299957,201.375031 348.483124,201.798523 
	C344.806641,202.655487 341.126190,200.383972 337.281860,200.915863 
	C336.327698,201.047897 336.116211,200.392746 336.249969,199.316803 
	C337.236755,191.379654 338.544189,183.443558 338.844452,175.472992 
	C339.057922,169.806091 342.771515,172.512543 345.086670,172.064957 
	C348.170502,171.468750 349.725647,173.362015 348.907196,176.117294 
	C347.481445,180.917297 348.520844,185.881989 347.290985,190.723068 
	C346.501801,193.829498 347.187805,197.310730 347.580566,200.787506 
z"/>
<path fill="#000000" opacity="1.000000" stroke="none" 
	d="
M343.041779,109.110748 
	C343.313263,114.985413 338.756653,113.386681 336.172546,113.852325 
	C332.603729,114.495407 334.286774,111.249756 334.077667,109.686127 
	C333.867706,108.115814 333.924225,106.488968 334.486725,104.828087 
	C335.633301,101.442795 336.051575,98.128441 330.338959,98.606789 
	C334.465668,97.761665 338.280029,97.258286 341.980835,96.097092 
	C343.930908,95.485222 344.629089,96.193901 344.096649,98.491425 
	C343.329376,101.802261 344.952911,105.411858 343.041779,109.110748 
z"/>
<path fill="#000000" opacity="1.000000" stroke="none" 
	d="
M351.994263,87.818604 
	C351.984009,89.101021 352.069489,89.942909 351.944153,90.752144 
	C351.658966,92.592949 350.369720,93.019112 348.695465,93.007568 
	C346.484619,92.992317 346.934326,91.359291 347.040588,90.195244 
	C347.512878,85.020470 348.070740,79.852158 348.691498,74.692795 
	C349.061798,71.615120 350.504517,68.000038 344.625641,69.046478 
	C345.004486,68.460419 345.123718,68.275948 345.242981,68.091476 
	C347.944336,69.909958 352.802216,63.595627 353.621765,69.512100 
	C354.057526,72.658035 353.732605,76.712738 352.770447,80.086067 
	C352.060638,82.574669 352.205353,84.939835 351.994263,87.818604 
z"/>
<path fill="#000000" opacity="1.000000" stroke="none" 
	d="
M350.989685,97.205475 
	C350.806793,101.902824 349.601593,106.055580 349.928192,110.375656 
	C350.092865,112.553452 348.447235,113.051109 346.563293,112.980606 
	C344.297607,112.895821 344.809387,111.034592 345.081543,110.058640 
	C346.254272,105.853569 345.877594,101.580231 346.052795,97.328072 
	C346.106842,96.016045 346.930084,95.176880 348.242279,95.061867 
	C349.513885,94.950401 351.053040,94.619789 350.989685,97.205475 
z"/>
<path fill="#000000" opacity="1.000000" stroke="none" 
	d="
M352.714966,101.615097 
	C352.963562,99.401291 353.051971,97.582550 352.997955,95.768051 
	C352.948212,94.095871 353.928467,93.993614 355.211395,93.994118 
	C357.578857,93.995049 355.967651,95.376411 356.031311,96.184898 
	C356.394287,100.792038 355.033600,105.325462 355.152863,109.841125 
	C355.285675,114.868950 354.258423,117.440704 348.474548,115.650177 
	C351.706696,113.744926 352.144501,110.706215 352.051392,107.356529 
	C352.002167,105.584404 351.551239,103.723236 352.714966,101.615097 
z"/>
<path fill="#000000" opacity="1.000000" stroke="none" 
	d="
M446.491547,75.789932 
	C446.814423,70.804695 446.854919,65.451897 448.404602,60.579063 
	C449.755310,56.331856 447.555359,56.191570 444.227173,55.611557 
	C452.901733,54.363323 460.933319,53.196114 468.970001,52.065422 
	C469.997559,51.920856 471.108215,52.018688 470.886139,53.505512 
	C469.542053,62.503326 468.192993,71.500717 466.772888,80.486755 
	C465.225006,90.281181 463.592010,100.062126 462.007202,109.850746 
	C459.695221,124.130867 457.339203,138.404282 455.137421,152.701431 
	C454.750824,155.211670 454.102020,158.135269 457.819092,159.597092 
	C454.469910,160.654251 451.798157,158.069641 448.457794,158.922867 
	C447.281403,151.557648 449.456726,144.550247 450.362518,137.428421 
	C451.587860,127.794159 453.518280,118.251831 454.975067,108.644127 
	C456.508881,98.528152 457.563568,88.330070 459.430450,78.279846 
	C459.990631,75.264183 457.736115,73.945702 456.945374,74.318214 
	C453.623688,75.882973 450.007446,73.905312 446.491547,75.789932 
z"/>
<path fill="#000000" opacity="1.000000" stroke="none" 
	d="
M443.878387,157.948883 
	C437.281982,156.595139 437.475342,156.298523 439.138214,147.488327 
	C441.633179,134.269379 443.605591,120.951584 445.755585,107.668602 
	C445.847107,107.103188 445.672699,106.092102 445.314270,105.916245 
	C438.817993,102.729279 443.290894,97.447556 443.281769,93.339615 
	C443.272766,89.246628 444.924652,85.104622 445.048462,80.834274 
	C445.114075,78.571724 446.539337,77.266068 448.808868,77.024513 
	C449.631348,76.936974 450.553497,76.777863 451.286560,77.045189 
	C453.571167,77.878357 456.285431,74.502686 457.534485,76.768372 
	C458.209839,77.993370 457.291901,81.086678 456.940979,83.301025 
	C454.043030,101.586395 450.975891,119.844933 448.069519,138.128998 
	C447.199890,143.599945 446.607269,149.118820 446.041504,154.631516 
	C445.893921,156.069519 445.661987,157.226456 443.878387,157.948883 
z"/>
<path fill="#000000" opacity="1.000000" stroke="none" 
	d="
M428.424988,213.219452 
	C426.261169,213.056122 424.594116,213.072891 422.932526,212.985718 
	C419.909821,212.827148 418.471100,211.300644 419.005127,208.203995 
	C420.330627,200.517227 421.727631,192.842117 422.973389,185.142517 
	C423.634491,181.056396 426.641937,183.022522 428.329681,183.375168 
	C429.528564,183.625687 432.553253,182.960159 431.683014,187.069595 
	C429.972137,195.148926 428.272766,203.334152 428.454651,212.016312 
	C428.781494,212.678696 428.852844,213.015686 428.424988,213.219452 
z"/>
<path fill="#000000" opacity="1.000000" stroke="none" 
	d="
M428.396729,153.154587 
	C429.117950,144.658234 430.175354,136.433823 431.342163,128.224976 
	C431.419373,127.681961 432.244446,127.009392 431.732361,126.506142 
	C426.438416,121.303825 431.465424,115.790642 431.469635,110.488495 
	C431.472839,106.428589 435.468842,106.549767 438.956970,107.636887 
	C441.764282,111.301521 439.732117,114.851250 439.272186,118.090111 
	C437.776978,128.619034 436.094452,139.127457 434.480316,149.643097 
	C433.957794,153.047134 432.520905,154.969574 428.396729,153.154587 
z"/>
<path fill="#000000" opacity="1.000000" stroke="none" 
	d="
M432.802124,179.452637 
	C431.867096,180.987915 431.322540,182.944214 429.459259,181.717636 
	C427.587128,180.485153 425.542145,181.465042 423.541321,180.723114 
	C424.775757,172.846466 425.444977,164.868958 427.507111,156.878510 
	C428.226593,157.197922 428.777893,157.550369 429.378998,157.693039 
	C436.155975,159.301697 436.293610,159.703156 434.832428,166.540329 
	C433.952667,170.656662 433.565247,174.878235 432.802124,179.452637 
z"/>
<path fill="#000000" opacity="1.000000" stroke="none" 
	d="
M434.690002,80.308144 
	C433.501007,79.767509 432.343719,80.492661 431.502441,78.980347 
	C433.653961,78.980347 435.624207,79.201805 437.528046,78.940079 
	C444.025543,78.046822 444.028503,77.983841 442.972443,84.551796 
	C441.993378,90.641144 440.871674,96.710747 440.061371,102.822006 
	C439.828217,104.580513 439.255493,105.022102 437.641266,105.037895 
	C435.908386,105.054848 434.095764,104.489944 432.040039,106.121155 
	C433.252533,98.305786 434.239410,91.145012 435.567993,84.048203 
	C435.837280,82.609833 436.113403,81.580826 434.690002,80.308144 
z"/>
<path fill="#000000" opacity="1.000000" stroke="none" 
	d="
M442.438324,183.213135 
	C433.508728,182.866394 433.389709,182.842941 435.088196,174.221970 
	C435.872406,170.241714 437.062744,166.340332 436.988556,162.238129 
	C436.939606,159.532990 438.584351,158.357498 440.741791,159.179703 
	C442.305695,159.775711 445.525574,158.703003 444.592896,163.386597 
	C443.406494,169.344299 441.474426,175.406418 442.446198,182.013702 
	C442.781311,182.675339 442.860352,183.012268 442.438324,183.213135 
z"/>
<path fill="#000000" opacity="1.000000" stroke="none" 
	d="
M420.391907,108.997009 
	C423.857269,109.684822 426.734344,106.856018 429.714294,108.381058 
	C429.127808,112.660606 428.731445,116.836449 427.920502,120.930161 
	C427.512970,122.987190 428.190613,125.806717 424.339966,126.121750 
	C420.230591,126.457954 419.193970,124.650101 420.128845,121.369995 
	C420.726135,119.274376 420.338806,116.932564 421.167633,115.188919 
	C423.120270,111.081001 421.116516,109.972313 417.711029,109.166161 
	C418.467987,109.109726 419.224915,109.053299 420.391907,108.997009 
z"/>
<path fill="#000000" opacity="1.000000" stroke="none" 
	d="
M440.619324,108.358810 
	C440.927673,106.692436 441.360046,105.664131 442.931396,106.076836 
	C444.455414,106.477112 443.503906,107.288170 443.361755,108.229164 
	C441.159027,122.813728 438.866760,137.391769 437.106201,152.032761 
	C436.371765,158.140488 432.536316,155.764465 429.219299,155.458145 
	C435.833282,152.825104 433.958862,146.538895 434.894531,141.788544 
	C437.053528,130.827377 437.891754,119.632469 440.619324,108.358810 
z"/>
<path fill="#FF58A6" opacity="1.000000" stroke="none" 
	d="
M440.563721,107.998978 
	C439.804230,115.861946 438.888214,123.741806 437.690857,131.578674 
	C436.667236,138.278671 434.983582,144.893051 434.259705,151.617203 
	C433.898041,154.976669 432.432312,155.274384 429.468689,155.056427 
	C428.784973,154.553055 428.526062,153.998917 428.151001,153.161880 
	C431.637482,153.564880 432.742279,152.242798 433.151062,148.440414 
	C434.211578,138.575256 436.021027,128.790802 437.521942,118.972649 
	C438.038177,115.595871 438.525848,112.214722 439.098694,108.411217 
	C439.542236,107.990318 439.913696,107.993767 440.563721,107.998978 
z"/>
<path fill="#000000" opacity="1.000000" stroke="none" 
	d="
M442.509338,182.521194 
	C443.338135,182.722778 443.973877,183.107178 444.609619,183.491577 
	C443.875549,184.408615 443.034393,183.941452 442.073181,183.377167 
	C442.063690,182.952713 442.189972,182.828354 442.509338,182.521194 
z"/>
<path fill="#000000" opacity="1.000000" stroke="none" 
	d="
M428.512421,212.526123 
	C429.345703,212.725601 429.981232,213.109482 430.616791,213.493378 
	C429.880829,214.413559 429.033997,213.943283 428.064941,213.386017 
	C428.055420,212.960968 428.185059,212.835739 428.512421,212.526123 
z"/>
<path fill="#000000" opacity="1.000000" stroke="none" 
	d="
M126.279037,70.652878 
	C130.087723,77.114090 133.683960,83.265076 137.280182,89.416061 
	C136.918686,89.715294 136.557190,90.014519 136.195694,90.313744 
	C128.109085,82.855087 119.675964,75.908440 108.340393,71.230446 
	C114.328453,71.195129 115.745918,66.782425 118.467697,63.977024 
	C120.274033,62.115189 121.549026,61.039707 122.861603,64.396271 
	C123.675598,66.477852 124.981476,68.367096 126.279037,70.652878 
z"/>
<path fill="#000000" opacity="1.000000" stroke="none" 
	d="
M563.582397,115.780212 
	C567.716675,116.323166 571.013977,114.564041 574.769470,114.207993 
	C574.769470,121.222206 574.769470,128.215515 574.769470,135.954819 
	C570.640808,129.386902 568.680115,122.375275 563.506897,116.898079 
	C563.217407,116.307030 563.155762,115.974541 563.582397,115.780212 
z"/>
<path fill="#000000" opacity="1.000000" stroke="none" 
	d="
M563.479309,116.462143 
	C562.939514,116.195541 562.600220,115.751518 562.260986,115.307487 
	C562.791626,115.327408 563.322266,115.347336 563.961670,115.642838 
	C563.940247,116.040512 563.809998,116.162613 563.479309,116.462143 
z"/>
<path fill="#000000" opacity="1.000000" stroke="none" 
	d="
M242.950760,84.938660 
	C236.662689,86.674744 232.077850,90.915581 227.152206,95.424591 
	C227.857071,89.310822 224.569153,86.767639 218.755936,86.522034 
	C226.732178,85.393059 234.541672,83.772820 242.726715,84.557846 
	C242.892883,84.944328 242.965591,84.975273 242.950760,84.938660 
z"/>
</svg>